<?xml version="1.0" encoding="UTF-8"?>
<svg version="1.1" xmlns="http://www.w3.org/2000/svg" width="500" height="500">
<path d="M0 0 C4.28342458 3.23636524 5.77085944 7.2460342 7.8125 12.125 C8.19220947 13.02581299 8.19220947 13.02581299 8.57958984 13.94482422 C11.35861007 20.57715017 13.93110736 27.17900538 15.8125 34.125 C16.8025 33.795 17.7925 33.465 18.8125 33.125 C28.74099905 32.01759716 38.7092691 31.96188685 48.6875 32 C49.38572876 32.00121857 50.08395752 32.00243713 50.80334473 32.00369263 C76.94506135 32.05722183 76.94506135 32.05722183 84.8125 34.125 C84.98483154 33.59422852 85.15716309 33.06345703 85.3347168 32.51660156 C87.28576467 26.57778963 89.38014732 20.70898114 91.625 14.875 C92.10163086 13.56789063 92.10163086 13.56789063 92.58789062 12.234375 C95.03372339 5.92998879 97.61088891 2.22580555 103.8125 -0.875 C109.7909794 -1.48504892 114.7798048 -0.10413276 119.8125 3.125 C120.1425 4.115 120.4725 5.105 120.8125 6.125 C121.4725 6.125 122.1325 6.125 122.8125 6.125 C124.8890308 10.2780616 124.79660964 12.63707641 123.8125 17.125 C123.10605674 19.16323511 122.34091731 21.18179799 121.52734375 23.1796875 C121.07939453 24.28828125 120.63144531 25.396875 120.16992188 26.5390625 C119.46706055 28.25222656 119.46706055 28.25222656 118.75 30 C118.27755859 31.1653125 117.80511719 32.330625 117.31835938 33.53125 C116.15517209 36.39809544 114.98639942 39.26252807 113.8125 42.125 C117.487882 45.10195677 121.15520334 47.60671691 125.23828125 49.9765625 C125.75777344 50.35554688 126.27726563 50.73453125 126.8125 51.125 C126.8125 51.785 126.8125 52.445 126.8125 53.125 C127.4725 53.125 128.1325 53.125 128.8125 53.125 C128.8125 53.785 128.8125 54.445 128.8125 55.125 C129.4725 55.125 130.1325 55.125 130.8125 55.125 C130.8125 55.785 130.8125 56.445 130.8125 57.125 C131.8025 57.455 132.7925 57.785 133.8125 58.125 C142.04900413 67.78630224 148.01176311 79.29970197 147.8125 92.125 C149.04226563 92.07859375 150.27203125 92.0321875 151.5390625 91.984375 C153.1718506 91.94683964 154.80466511 91.91044138 156.4375 91.875 C157.24574219 91.84148437 158.05398438 91.80796875 158.88671875 91.7734375 C164.39318747 91.68390142 167.43307216 92.46983612 171.8125 96.125 C175.54547041 100.24413977 175.93550702 103.99892505 175.95776367 109.42504883 C175.96414352 110.48327347 175.97052338 111.54149811 175.97709656 112.63179016 C175.97876579 114.3396595 175.97876579 114.3396595 175.98046875 116.08203125 C175.98379715 117.25835617 175.98712555 118.43468109 175.99055481 119.64665222 C175.99561733 122.13560597 175.99796334 124.6245665 175.99780273 127.11352539 C175.99998557 130.91238668 176.01813873 134.71095585 176.03710938 138.50976562 C176.04004419 140.92968651 176.0420284 143.34960877 176.04296875 145.76953125 C176.05015427 146.90203812 176.05733978 148.03454498 176.06474304 149.20137024 C176.02694028 162.32004231 176.02694028 162.32004231 171.9375 167.5 C168.69835114 169.97699619 165.70412561 170.25296686 161.703125 170.22265625 C160.94902344 170.21943359 160.19492187 170.21621094 159.41796875 170.21289062 C158.64066406 170.20451172 157.86335937 170.19613281 157.0625 170.1875 C156.26972656 170.18298828 155.47695313 170.17847656 154.66015625 170.17382812 C152.71090492 170.16208565 150.76169262 170.14415146 148.8125 170.125 C148.70292969 170.8984375 148.59335937 171.671875 148.48046875 172.46875 C146.36523922 186.36391635 141.83466289 195.46534871 130.8515625 204.625 C119.3476802 213.08762606 106.03039832 213.28548499 92.3125 213.1875 C90.50652344 213.18073242 90.50652344 213.18073242 88.6640625 213.17382812 C85.71352001 213.16211962 82.76300334 213.1441868 79.8125 213.125 C79.8125 218.075 79.8125 223.025 79.8125 228.125 C81.978125 228.0425 84.14375 227.96 86.375 227.875 C99.92664355 227.72407752 112.13727905 231.5997502 122.4921875 240.58203125 C123.64858134 241.71447611 124.73719925 242.91528666 125.8125 244.125 C126.410625 244.681875 127.00875 245.23875 127.625 245.8125 C128.8125 247.125 128.8125 247.125 128.8125 249.125 C129.4725 249.125 130.1325 249.125 130.8125 249.125 C136.72852502 259.27343818 139.6100843 270.36063152 138.8125 282.125 C136.93131478 284.00618522 133.69088279 283.25123647 131.18937683 283.25198364 C130.13877208 283.25432363 130.13877208 283.25432363 129.06694299 283.25671089 C126.70240395 283.26072331 124.33792827 283.25753028 121.97338867 283.25439453 C120.28517112 283.2557485 118.59695387 283.25752841 116.90873718 283.25970459 C112.30949363 283.26428047 107.7102724 283.26248846 103.11102843 283.2593255 C98.30557045 283.25680145 93.50011443 283.25913968 88.69465637 283.26071167 C80.6199204 283.26253376 72.54519357 283.26012658 64.47045898 283.25537109 C55.13027405 283.24993392 45.79011096 283.25168701 36.44992656 283.2571975 C28.44056644 283.26173409 20.43121291 283.26237633 12.42185193 283.25975883 C7.63408221 283.25819836 2.84632276 283.25799591 -1.9414463 283.26129532 C-6.4450794 283.26418175 -10.94868433 283.26218406 -15.45231438 283.25640106 C-17.10673094 283.25507738 -18.76114987 283.25546095 -20.41556549 283.25766373 C-22.67155109 283.26039072 -24.92744609 283.25697498 -27.1834259 283.25198364 C-28.44682706 283.25160662 -29.71022821 283.25122959 -31.01191425 283.25084114 C-33.61361116 283.14774189 -35.72121561 282.90181049 -38.1875 282.125 C-39.2148308 267.10314076 -35.3293823 254.83108628 -25.6015625 243.234375 C-17.66187903 234.66100788 -5.99026294 228.55162865 5.78710938 228.0390625 C10.46793343 227.95464728 15.12829996 228.04627395 19.8125 228.125 C19.8125 223.175 19.8125 218.225 19.8125 213.125 C18.06324219 213.14820313 16.31398438 213.17140625 14.51171875 213.1953125 C12.17448347 213.21408547 9.83724353 213.23228402 7.5 213.25 C6.35208984 213.26675781 5.20417969 213.28351563 4.02148438 213.30078125 C-12.42286623 213.39395038 -25.98244712 210.17095406 -37.94140625 198.3984375 C-45.32357812 190.29469995 -48.37451978 181.0033172 -48.1875 170.125 C-49.18910156 170.15980469 -50.19070312 170.19460938 -51.22265625 170.23046875 C-65.01488135 170.57341244 -65.01488135 170.57341244 -70.1875 167.125 C-75.4809918 161.47442671 -74.76713734 155.25856874 -74.71875 147.84375 C-74.7225769 146.55690308 -74.72640381 145.27005615 -74.73034668 143.94421387 C-74.73622549 141.22742386 -74.72773231 138.51116193 -74.70898438 135.79443359 C-74.68619436 132.32414461 -74.69932635 128.8550932 -74.72327423 125.38484955 C-74.74126143 122.05855233 -74.72864205 118.7325823 -74.71875 115.40625 C-74.72684692 114.16548706 -74.73494385 112.92472412 -74.74328613 111.6463623 C-74.62704102 100.9388135 -74.62704102 100.9388135 -70.1875 96.125 C-65.39965185 91.98193369 -61.84568998 91.59134188 -55.8125 91.875 C-55.07644531 91.89304687 -54.34039062 91.91109375 -53.58203125 91.9296875 C-51.78328264 91.97640824 -49.98521289 92.04813817 -48.1875 92.125 C-48.10113281 91.45855469 -48.01476562 90.79210937 -47.92578125 90.10546875 C-46.80705686 82.76704731 -44.52139752 76.72989132 -41.1875 70.125 C-40.86007813 69.45726562 -40.53265625 68.78953125 -40.1953125 68.1015625 C-39.53875896 66.76969675 -38.86580942 65.44591834 -38.1875 64.125 C-37.5275 64.125 -36.8675 64.125 -36.1875 64.125 C-35.81044922 63.01705078 -35.81044922 63.01705078 -35.42578125 61.88671875 C-34.09511914 58.91896445 -32.67771185 57.2137945 -30.375 54.9375 C-29.70855469 54.26332031 -29.04210937 53.58914062 -28.35546875 52.89453125 C-26.05594941 51.01762628 -23.9835794 50.07654535 -21.1875 49.125 C-21.1875 48.465 -21.1875 47.805 -21.1875 47.125 C-18.5475 45.805 -15.9075 44.485 -13.1875 43.125 C-14.28478249 39.54439399 -15.59032137 36.14101417 -17.1328125 32.734375 C-17.48730469 31.94160156 -17.84179688 31.14882812 -18.20703125 30.33203125 C-18.9395002 28.7040349 -19.68418351 27.081475 -20.44140625 25.46484375 C-22.98432348 19.69903509 -24.16470541 14.43550001 -23.1875 8.125 C-21.36545781 4.26178017 -18.56327658 2.33770372 -14.875 0.25 C-9.51342651 -1.38573428 -5.49759869 -1.50914474 0 0 Z " fill="#1F1840" transform="translate(200.1875,108.875)"/>
<path d="M0 0 C0.3125 2.25 0.3125 2.25 0 5 C-2.18584422 7.25870569 -4.53907684 8.74384373 -7.27734375 10.265625 C-14.24582166 14.17398549 -21.36930482 19.10791445 -24 27 C-24.66 27 -25.32 27 -26 27 C-26.29003906 28.12148437 -26.29003906 28.12148437 -26.5859375 29.265625 C-26.84632813 30.25046875 -27.10671875 31.2353125 -27.375 32.25 C-27.75785156 33.71179688 -27.75785156 33.71179688 -28.1484375 35.203125 C-29 38 -29 38 -29.98408508 39.8868866 C-34.48720769 49.25342761 -33.31018794 61.15685133 -33.30078125 71.29296875 C-33.30467643 73.05170288 -33.30901277 74.81043608 -33.31376648 76.56916809 C-33.32118678 80.23616605 -33.32096652 83.90306762 -33.31567383 87.57006836 C-33.30986238 92.25378786 -33.32687083 96.93711407 -33.3500185 101.62076855 C-33.36478723 105.24545063 -33.36562366 108.87003841 -33.36250877 112.49474525 C-33.36301967 114.221406 -33.36821357 115.94807235 -33.37832069 117.6747036 C-33.39073942 120.09092904 -33.38386325 122.50639301 -33.37231445 124.92260742 C-33.37995819 125.6246228 -33.38760193 126.32663818 -33.39547729 127.04992676 C-33.33991952 132.34275163 -31.96847913 136.17432871 -30 141 C-30 141.66 -30 142.32 -30 143 C-29.34 143 -28.68 143 -28 143 C-27.67 144.32 -27.34 145.64 -27 147 C-26.34 147 -25.68 147 -25 147 C-25 147.66 -25 148.32 -25 149 C-24.34 149 -23.68 149 -23 149 C-23 149.66 -23 150.32 -23 151 C-22.030625 151.28875 -21.06125 151.5775 -20.0625 151.875 C-17 153 -17 153 -16 155 C-7.99773195 158.87988754 -0.07463301 159.29493168 8.64160156 159.2746582 C9.78416916 159.27976913 10.92673676 159.28488007 12.10392761 159.29014587 C15.86621396 159.30400049 19.62831623 159.30308788 23.390625 159.30078125 C26.01845365 159.304671 28.64628167 159.30900624 31.27410889 159.31376648 C36.77829608 159.32196304 42.28243192 159.32108315 47.78662109 159.31567383 C54.12138732 159.30964324 60.45593093 159.3219278 66.79065919 159.3432439 C72.91490486 159.36308347 79.03904757 159.36602167 85.16332245 159.36250877 C87.75470247 159.36302011 90.3460862 159.36822239 92.93744659 159.37832069 C96.57207556 159.39074475 100.20619861 159.38385678 103.84082031 159.37231445 C104.89784653 159.37995819 105.95487274 159.38760193 107.04393005 159.39547729 C118.49308629 159.31566568 127.89410186 157.08236522 137 150 C138.13099868 153.39299605 138.04978445 154.63257547 137 158 C129.70412382 167.70567583 119.42176868 172.64196537 107.6328125 174.54296875 C101.60907562 175.2704732 95.55725983 175.10576614 89.5 175.0625 C87.69402344 175.05573242 87.69402344 175.05573242 85.8515625 175.04882812 C82.90102001 175.03711962 79.95050334 175.0191868 77 175 C77 179.95 77 184.9 77 190 C79.165625 189.9175 81.33125 189.835 83.5625 189.75 C97.11414355 189.59907752 109.32477905 193.4747502 119.6796875 202.45703125 C120.83608134 203.58947611 121.92469925 204.79028666 123 206 C123.598125 206.556875 124.19625 207.11375 124.8125 207.6875 C126 209 126 209 126 211 C126.66 211 127.32 211 128 211 C133.91602502 221.14843818 136.7975843 232.23563152 136 244 C134.11881478 245.88118522 130.87838279 245.12623647 128.37687683 245.12698364 C127.32627208 245.12932363 127.32627208 245.12932363 126.25444299 245.13171089 C123.88990395 245.13572331 121.52542827 245.13253028 119.16088867 245.12939453 C117.47267112 245.1307485 115.78445387 245.13252841 114.09623718 245.13470459 C109.49699363 245.13928047 104.8977724 245.13748846 100.29852843 245.1343255 C95.49307045 245.13180145 90.68761443 245.13413968 85.88215637 245.13571167 C77.8074204 245.13753376 69.73269357 245.13512658 61.65795898 245.13037109 C52.31777405 245.12493392 42.97761096 245.12668701 33.63742656 245.1321975 C25.62806644 245.13673409 17.61871291 245.13737633 9.60935193 245.13475883 C4.82158221 245.13319836 0.03382276 245.13299591 -4.7539463 245.13629532 C-9.2575794 245.13918175 -13.76118433 245.13718406 -18.26481438 245.13140106 C-19.91923094 245.13007738 -21.57364987 245.13046095 -23.22806549 245.13266373 C-25.48405109 245.13539072 -27.73994609 245.13197498 -29.9959259 245.12698364 C-31.25932706 245.12660662 -32.52272821 245.12622959 -33.82441425 245.12584114 C-36.42611116 245.02274189 -38.53371561 244.77681049 -41 244 C-42.0273308 228.97814076 -38.1418823 216.70608628 -28.4140625 205.109375 C-20.47437903 196.53600788 -8.80276294 190.42662865 2.97460938 189.9140625 C7.65543343 189.82964728 12.31579996 189.92127395 17 190 C17 185.05 17 180.1 17 175 C15.25074219 175.02320313 13.50148438 175.04640625 11.69921875 175.0703125 C9.36198347 175.08908547 7.02474353 175.10728402 4.6875 175.125 C3.53958984 175.14175781 2.39167969 175.15851563 1.20898438 175.17578125 C-15.23536623 175.26895038 -28.79494712 172.04595406 -40.75390625 160.2734375 C-48.13607812 152.16969995 -51.18701978 142.8783172 -51 132 C-52.00160156 132.03480469 -53.00320312 132.06960938 -54.03515625 132.10546875 C-67.82738135 132.44841244 -67.82738135 132.44841244 -73 129 C-78.2934918 123.34942671 -77.57963734 117.13356874 -77.53125 109.71875 C-77.5350769 108.43190308 -77.53890381 107.14505615 -77.54284668 105.81921387 C-77.54872549 103.10242386 -77.54023231 100.38616193 -77.52148438 97.66943359 C-77.49869436 94.19914461 -77.51182635 90.7300932 -77.53577423 87.25984955 C-77.55376143 83.93355233 -77.54114205 80.6075823 -77.53125 77.28125 C-77.53934692 76.04048706 -77.54744385 74.79972412 -77.55578613 73.5213623 C-77.43954102 62.8138135 -77.43954102 62.8138135 -73 58 C-68.21215185 53.85693369 -64.65818998 53.46634188 -58.625 53.75 C-57.88894531 53.76804688 -57.15289062 53.78609375 -56.39453125 53.8046875 C-54.59578264 53.85140824 -52.79771289 53.92313817 -51 54 C-50.91363281 53.33355469 -50.82726562 52.66710937 -50.73828125 51.98046875 C-49.61955686 44.64204731 -47.33389752 38.60489132 -44 32 C-43.50886719 30.99839844 -43.50886719 30.99839844 -43.0078125 29.9765625 C-42.35125896 28.64469675 -41.67830942 27.32091834 -41 26 C-40.34 26 -39.68 26 -39 26 C-38.62294922 24.89205078 -38.62294922 24.89205078 -38.23828125 23.76171875 C-36.90761914 20.79396445 -35.49021185 19.0887945 -33.1875 16.8125 C-32.52105469 16.13832031 -31.85460937 15.46414062 -31.16796875 14.76953125 C-28.86844941 12.89262628 -26.7960794 11.95154535 -24 11 C-24 10.34 -24 9.68 -24 9 C-20.58168085 6.4606772 -18.24223102 5.6363802 -14 6 C-14 5.34 -14 4.68 -14 4 C-12.23141309 3.32739649 -10.46003984 2.66211605 -8.6875 2 C-7.70136719 1.62875 -6.71523437 1.2575 -5.69921875 0.875 C-3 0 -3 0 0 0 Z " fill="#150D29" transform="translate(203,147)"/>
<path d="M0 0 C0.33 0 0.66 0 1 0 C1.06731323 1.17187866 1.06731323 1.17187866 1.13598633 2.36743164 C1.34829871 5.93338074 1.58021826 9.49779827 1.8125 13.0625 C1.88275391 14.29162109 1.95300781 15.52074219 2.02539062 16.78710938 C2.6341241 25.8207142 3.72710434 32.12004992 10 39 C10.66 39.33 11.32 39.66 12 40 C12 40.66 12 41.32 12 42 C21.49349708 46.06864161 32.8716597 46.92731544 42.6875 43.3125 C46.54341119 41.47819719 49.2531308 39.31240109 52 36 C52.721875 35.175 53.44375 34.35 54.1875 33.5 C58.03510887 28.19295328 58.84439025 22.33126618 60 16 C59.18917969 16.60328125 58.37835938 17.2065625 57.54296875 17.828125 C49.29161924 23.83491695 41.55523234 29 31 29 C31 22.4 31 15.8 31 9 C40.24 9 49.48 9 59 9 C59 6.03 59 3.06 59 0 C59.33 0 59.66 0 60 0 C60 4.95 60 9.9 60 15 C62.165625 14.9175 64.33125 14.835 66.5625 14.75 C80.11414355 14.59907752 92.32477905 18.4747502 102.6796875 27.45703125 C103.83608134 28.58947611 104.92469925 29.79028666 106 31 C106.598125 31.556875 107.19625 32.11375 107.8125 32.6875 C109 34 109 34 109 36 C109.66 36 110.32 36 111 36 C116.91602502 46.14843818 119.7975843 57.23563152 119 69 C117.11881478 70.88118522 113.87838279 70.12623647 111.37687683 70.12698364 C110.32627208 70.12932363 110.32627208 70.12932363 109.25444299 70.13171089 C106.88990395 70.13572331 104.52542827 70.13253028 102.16088867 70.12939453 C100.47267112 70.1307485 98.78445387 70.13252841 97.09623718 70.13470459 C92.49699363 70.13928047 87.8977724 70.13748846 83.29852843 70.1343255 C78.49307045 70.13180145 73.68761443 70.13413968 68.88215637 70.13571167 C60.8074204 70.13753376 52.73269357 70.13512658 44.65795898 70.13037109 C35.31777405 70.12493392 25.97761096 70.12668701 16.63742656 70.1321975 C8.62806644 70.13673409 0.61871291 70.13737633 -7.39064807 70.13475883 C-12.17841779 70.13319836 -16.96617724 70.13299591 -21.7539463 70.13629532 C-26.2575794 70.13918175 -30.76118433 70.13718406 -35.26481438 70.13140106 C-36.91923094 70.13007738 -38.57364987 70.13046095 -40.22806549 70.13266373 C-42.48405109 70.13539072 -44.73994609 70.13197498 -46.9959259 70.12698364 C-48.89102764 70.1264181 -48.89102764 70.1264181 -50.82441425 70.12584114 C-53.42611116 70.02274189 -55.53371561 69.77681049 -58 69 C-59.0273308 53.97814076 -55.1418823 41.70608628 -45.4140625 30.109375 C-37.47437903 21.53600788 -25.80276294 15.42662865 -14.02539062 14.9140625 C-9.34456657 14.82964728 -4.68420004 14.92127395 0 15 C0 10.05 0 5.1 0 0 Z " fill="#7D42CC" transform="translate(220,322)"/>
<path d="M0 0 C11.50362454 -0.52890228 21.70078138 3.69687248 30.28125 11.25 C40.57529305 21.85159794 44.45728899 33.06432098 44.46875 47.5625 C44.48099609 48.36623047 44.49324219 49.16996094 44.50585938 49.99804688 C44.54033184 64.28113621 39.32990069 75.8384055 29.42578125 86.13671875 C16.56879244 98.80635617 1.10082357 102.74652334 -16.58984375 102.6484375 C-17.75580582 102.65130768 -18.92176788 102.65417786 -20.12306213 102.65713501 C-22.5624338 102.65915938 -25.00182231 102.6537448 -27.44116211 102.64111328 C-31.17142726 102.62493417 -34.90062579 102.64107076 -38.63085938 102.66015625 C-41.01302321 102.65817552 -43.39518639 102.65433539 -45.77734375 102.6484375 C-46.88677841 102.65451019 -47.99621307 102.66058289 -49.13926697 102.6668396 C-56.42649256 102.60049607 -60.62276289 101.31399141 -66.71875 97.25 C-67.43646982 93.87073585 -67.29206073 90.64700004 -66.71875 87.25 C-63.53182604 82.9704164 -59.43469114 80.60797057 -54.71875 78.25 C-52.00114892 78.17818179 -49.31015612 78.15700494 -46.59375 78.1875 C-45.83964844 78.19201172 -45.08554688 78.19652344 -44.30859375 78.20117188 C-42.44527873 78.21296501 -40.58200445 78.23090058 -38.71875 78.25 C-38.71875 73.3 -38.71875 68.35 -38.71875 63.25 C-34.71875 64.25 -34.71875 64.25 -32.71875 65.25 C-32.71875 65.91 -32.71875 66.57 -32.71875 67.25 C-31.39875 67.25 -30.07875 67.25 -28.71875 67.25 C-29.10739654 63.79863159 -29.10739654 63.79863159 -30.71875 60.25 C-32.61358368 59.16259409 -32.61358368 59.16259409 -34.8125 58.51953125 C-35.90594727 58.15178589 -35.90594727 58.15178589 -37.02148438 57.77661133 C-37.58158203 57.60282959 -38.14167969 57.42904785 -38.71875 57.25 C-39.56380081 24.5010311 -39.56380081 24.5010311 -27.53125 11.5625 C-19.22518378 3.84844282 -11.10569528 1.02121336 0 0 Z " fill="#7C3CD1" transform="translate(288.71875,188.75)"/>
<path d="M0 0 C0.495 6.93 0.495 6.93 1 14 C1.99 14.33 2.98 14.66 4 15 C7 20.22222222 7 20.22222222 7 23 C8.0209375 23.309375 8.0209375 23.309375 9.0625 23.625 C11.73037054 24.87379046 13.03301192 25.85157623 15.125 27.8125 C22.00090571 33.91112941 29.94062457 36.55445695 39 37 C39 42.28 39 47.56 39 53 C28.1169101 53.15321934 17.23378446 53.30200473 6.35052872 53.4429636 C1.29711956 53.5085926 -3.75624789 53.57617209 -8.80957031 53.64819336 C-13.68539495 53.71761338 -18.56126254 53.78193048 -23.43720245 53.84269524 C-25.29836729 53.86678909 -27.15950917 53.8927282 -29.02062225 53.92053413 C-31.62536532 53.95913647 -34.23011243 53.99120445 -36.83496094 54.02172852 C-37.60604187 54.03467453 -38.3771228 54.04762054 -39.17156982 54.06095886 C-42.59406465 54.09478315 -45.73113603 54.09418615 -49 53 C-50.0273308 37.97814076 -46.1418823 25.70608628 -36.4140625 14.109375 C-26.29410298 3.18171918 -14.42712717 -0.19496118 0 0 Z " fill="#160E2B" transform="translate(211,338)"/>
<path d="M0 0 C1.29131933 3.93276152 1.13306411 7.89259809 1.11352539 11.98144531 C1.11367142 12.7818222 1.11381744 13.5821991 1.1139679 14.40682983 C1.1132723 17.04728931 1.1054964 19.68767788 1.09765625 22.328125 C1.09579082 24.16086793 1.09436751 25.99361137 1.09336853 27.82635498 C1.08955322 32.64649842 1.07973133 37.46661165 1.06866455 42.28674316 C1.05842925 47.20678295 1.05386637 52.12682763 1.04882812 57.046875 C1.03810819 66.69792993 1.02104359 76.34896245 1 86 C0.67 86 0.34 86 0 86 C0 84.02 0 82.04 0 80 C-1.00160156 80.03480469 -2.00320312 80.06960938 -3.03515625 80.10546875 C-16.82738135 80.44841244 -16.82738135 80.44841244 -22 77 C-27.2934918 71.34942671 -26.57963734 65.13356874 -26.53125 57.71875 C-26.5350769 56.43190308 -26.53890381 55.14505615 -26.54284668 53.81921387 C-26.54872549 51.10242386 -26.54023231 48.38616193 -26.52148438 45.66943359 C-26.49869436 42.19914461 -26.51182635 38.7300932 -26.53577423 35.25984955 C-26.55376143 31.93355233 -26.54114205 28.6075823 -26.53125 25.28125 C-26.53934692 24.04048706 -26.54744385 22.79972412 -26.55578613 21.5213623 C-26.43954102 10.8138135 -26.43954102 10.8138135 -22 6 C-17.21215185 1.85693369 -13.65818998 1.46634188 -7.625 1.75 C-6.52091797 1.77707031 -6.52091797 1.77707031 -5.39453125 1.8046875 C-3.59578264 1.85140824 -1.79771289 1.92313817 0 2 C0 1.34 0 0.68 0 0 Z " fill="#311E73" transform="translate(152,199)"/>
<path d="M0 0 C0.33 0 0.66 0 1 0 C1 1.98 1 3.96 1 6 C2.22976563 5.95359375 3.45953125 5.9071875 4.7265625 5.859375 C6.3593506 5.82183964 7.99216511 5.78544138 9.625 5.75 C10.83736328 5.69972656 10.83736328 5.69972656 12.07421875 5.6484375 C17.58068747 5.55890142 20.62057216 6.34483612 25 10 C28.73297041 14.11913977 29.12300702 17.87392505 29.14526367 23.30004883 C29.15164352 24.35827347 29.15802338 25.41649811 29.16459656 26.50679016 C29.16570938 27.64536972 29.1668222 28.78394928 29.16796875 29.95703125 C29.17129715 31.13335617 29.17462555 32.30968109 29.17805481 33.52165222 C29.18311733 36.01060597 29.18546334 38.4995665 29.18530273 40.98852539 C29.18748557 44.78738668 29.20563873 48.58595585 29.22460938 52.38476562 C29.22754419 54.80468651 29.2295284 57.22460877 29.23046875 59.64453125 C29.23765427 60.77703812 29.24483978 61.90954498 29.25224304 63.07637024 C29.21367452 76.46078511 29.21367452 76.46078511 24.875 81.4375 C24.25625 81.953125 23.6375 82.46875 23 83 C19.55853654 81.85284551 18.4671527 80.61227933 16 78 C15.21625 77.29875 14.4325 76.5975 13.625 75.875 C-0.03848822 60.91022719 0.36548012 43.26991878 0.25 24.1875 C0.22179859 21.83786901 0.19186545 19.48825814 0.16015625 17.13867188 C0.08678942 11.42586009 0.03485666 5.71316982 0 0 Z " fill="#7D3DD2" transform="translate(347,195)"/>
<path d="M0 0 C6.25327191 2.77105775 10.5711446 8.00239379 14.0546875 13.7578125 C15.69532066 21.41410056 14.92732386 27.3189266 11.10546875 34.1875 C7.77387604 39.10181785 3.19070278 42.34633576 -2.3828125 44.3828125 C-8.83953867 45.16447255 -13.66514896 44.40981084 -19.3828125 41.3828125 C-20.6821875 40.7640625 -20.6821875 40.7640625 -22.0078125 40.1328125 C-26.09370126 37.12215762 -28.78404171 33.17912487 -30.3828125 28.3828125 C-31.50865143 13.69153733 -31.50865143 13.69153733 -26.3828125 7.3828125 C-18.65672542 -0.30742267 -10.96023177 -2.83887971 0 0 Z " fill="#DBCCE7" transform="translate(304.3828125,211.6171875)"/>
<path d="M0 0 C5.73589153 3.3403133 11.49829199 8.80346972 13.6171875 15.16015625 C14.28801185 22.58321263 14.25399936 29.06411242 9.6171875 35.16015625 C4.62374713 40.58619665 -0.87198671 43.82579189 -8.3203125 44.53515625 C-15.56500372 44.21285858 -21.32335428 41.33460216 -26.3828125 36.16015625 C-31.44402059 29.68432478 -31.29450383 22.04581635 -30.3828125 14.16015625 C-28.51649671 7.81026525 -22.99912417 3.41648746 -17.5546875 0.01953125 C-12.25186386 -2.07870832 -5.34039475 -1.88227028 0 0 Z " fill="#DBCEE9" transform="translate(218.3828125,211.83984375)"/>
<path d="M0 0 C4.28342458 3.23636524 5.77085944 7.2460342 7.8125 12.125 C8.06563965 12.72554199 8.3187793 13.32608398 8.57958984 13.94482422 C11.35861007 20.57715017 13.93110736 27.17900538 15.8125 34.125 C10.95426106 38.25967143 8.41497659 39.51242583 2.08984375 39.1015625 C-1.70275715 39.14059441 -4.70898901 40.68561614 -8.1875 42.125 C-9.1775 42.125 -10.1675 42.125 -11.1875 42.125 C-11.1875 42.785 -11.1875 43.445 -11.1875 44.125 C-13.1875 43.125 -13.1875 43.125 -14.0546875 40.640625 C-14.42851562 39.48046875 -14.80234375 38.3203125 -15.1875 37.125 C-15.8194648 35.65427029 -16.46933282 34.19115917 -17.1328125 32.734375 C-17.48730469 31.94160156 -17.84179688 31.14882812 -18.20703125 30.33203125 C-18.9395002 28.7040349 -19.68418351 27.081475 -20.44140625 25.46484375 C-22.98432348 19.69903509 -24.16470541 14.43550001 -23.1875 8.125 C-21.36545781 4.26178017 -18.56327658 2.33770372 -14.875 0.25 C-9.51342651 -1.38573428 -5.49759869 -1.50914474 0 0 Z " fill="#2D1872" transform="translate(200.1875,108.875)"/>
<path d="M0 0 C0.75410156 0.00451172 1.50820312 0.00902344 2.28515625 0.01367188 C4.14847127 0.02546501 6.01174555 0.04340058 7.875 0.0625 C7.875 1.3825 7.875 2.7025 7.875 4.0625 C8.50591553 4.05726318 9.13683105 4.05202637 9.78686523 4.04663086 C12.62873347 4.02592174 15.47058588 4.01285934 18.3125 4 C19.80233398 3.98743164 19.80233398 3.98743164 21.32226562 3.97460938 C22.73862305 3.96977539 22.73862305 3.96977539 24.18359375 3.96484375 C25.49541626 3.95698853 25.49541626 3.95698853 26.83374023 3.94897461 C28.875 4.0625 28.875 4.0625 29.875 5.0625 C30.35261194 12.46548507 30.35261194 12.46548507 28.375 14.9375 C27.88 15.30875 27.385 15.68 26.875 16.0625 C26.875 16.7225 26.875 17.3825 26.875 18.0625 C27.535 18.7225 28.195 19.3825 28.875 20.0625 C28.875 20.3925 28.875 20.7225 28.875 21.0625 C31.35423801 21.08935095 33.8331884 21.10926547 36.3125 21.125 C37.37307617 21.13756836 37.37307617 21.13756836 38.45507812 21.15039062 C40.26193559 21.15903588 42.06887603 21.11470011 43.875 21.0625 C44.37 20.5675 44.37 20.5675 44.875 20.0625 C46.44763797 19.66351592 48.03395601 19.31773808 49.625 19 C50.48609375 18.82339844 51.3471875 18.64679688 52.234375 18.46484375 C54.82748391 18.06973988 57.25676202 17.99186408 59.875 18.0625 C51.98567534 24.82629905 39.87848172 24.51568705 30.00390625 24.4609375 C28.83794418 24.46380768 27.67198212 24.46667786 26.47068787 24.46963501 C24.0313162 24.47165938 21.59192769 24.4662448 19.15258789 24.45361328 C15.42232274 24.43743417 11.69312421 24.45357076 7.96289062 24.47265625 C5.58072679 24.47067552 3.19856361 24.46683539 0.81640625 24.4609375 C-0.29302841 24.46701019 -1.40246307 24.47308289 -2.54551697 24.4793396 C-9.83274256 24.41299607 -14.02901289 23.12649141 -20.125 19.0625 C-20.84271982 15.68323585 -20.69831073 12.45950004 -20.125 9.0625 C-14.79057874 1.8991343 -8.49785538 -0.09539907 0 0 Z " fill="#793FCB" transform="translate(242.125,266.9375)"/>
<path d="M0 0 C14.88186726 -0.81668784 14.88186726 -0.81668784 21 4 C26.58686925 9.3097428 29.95250663 13.8912316 30.4375 21.6875 C30.29206614 28.18354562 27.87180325 33.78173255 23.54296875 38.6328125 C17.73333571 43.75264742 12.73267891 45.34059416 5.171875 45.203125 C3 45 3 45 1 44 C2.91722169 36.18363463 2.91722169 36.18363463 6 34 C6.66 34 7.32 34 8 34 C8 33.01 8 32.02 8 31 C8.66 31 9.32 31 10 31 C11.19231274 27.42306178 11.1461202 24.15817447 11.125 20.4375 C11.12886719 19.75236328 11.13273437 19.06722656 11.13671875 18.36132812 C11.18722618 14.55437812 11.18722618 14.55437812 10 11 C9.2575 10.566875 8.515 10.13375 7.75 9.6875 C4.64912534 7.78469055 2.39325383 5.73514723 0 3 C0 2.01 0 1.02 0 0 Z " fill="#F6EFF9" transform="translate(289,211)"/>
<path d="M0 0 C5.15832467 3.62220593 9.97253605 7.91760815 12 14 C12.67082435 21.42305638 12.63681186 27.90395617 8 34 C3.64768153 38.72937577 -1.60421149 42.57536211 -8.18359375 43.2109375 C-10.375 43.25 -10.375 43.25 -14 43 C-15 42 -15 42 -15.0625 39.4375 C-15.041875 38.633125 -15.02125 37.82875 -15 37 C-14.34 37 -13.68 37 -13 37 C-12.89816406 36.40832031 -12.79632813 35.81664062 -12.69140625 35.20703125 C-11.88623706 32.6368584 -10.80062217 31.6034767 -8.9375 29.6875 C-5.01584177 24.65754705 -5.22970533 19.62611983 -5.45703125 13.4453125 C-6.19639748 8.75379441 -7.53485455 7.1186309 -11 4 C-11 3.01 -11 2.02 -11 1 C-7.16896593 -1.60510316 -4.36414205 -1.23650691 0 0 Z " fill="#F5F2F8" transform="translate(220,213)"/>
<path d="M0 0 C2.4375 0.8125 2.4375 0.8125 5 2 C5.33 2.99 5.66 3.98 6 5 C6.66 5 7.32 5 8 5 C10.07607731 9.15215462 9.98523802 11.51310328 9 16 C8.29401481 18.01519085 7.52889458 20.0103612 6.71484375 21.984375 C6.04291992 23.63373047 6.04291992 23.63373047 5.35742188 25.31640625 C4.88884766 26.44949219 4.42027344 27.58257812 3.9375 28.75 C3.00608025 31.01437925 2.07753935 33.27994553 1.15234375 35.546875 C0.73976318 36.54557617 0.32718262 37.54427734 -0.09790039 38.57324219 C-1.11614504 40.88094378 -1.11614504 40.88094378 -1 43 C-2.32 43 -3.64 43 -5 43 C-5 42.34 -5 41.68 -5 41 C-10.445 39.515 -10.445 39.515 -16 38 C-15.40346709 32.63120384 -14.14289791 27.886428 -12.3125 22.8125 C-12.05065918 22.07652588 -11.78881836 21.34055176 -11.51904297 20.58227539 C-9.16091272 14.12094233 -6.28572174 8.04712619 -3 2 C-2.01 2 -1.02 2 0 2 C0 1.34 0 0.68 0 0 Z " fill="#7D3DD3" transform="translate(315,110)"/>
<path d="M0 0 C2.4375 1 2.4375 1 4 2 C4 2.66 4 3.32 4 4 C3.01 4 2.02 4 1 4 C0.82984375 4.54527344 0.6596875 5.09054688 0.484375 5.65234375 C-0.78896463 9.6145974 -2.14619766 13.46209568 -3.875 17.25 C-8.93074861 28.3014967 -8.93074861 28.3014967 -12 40 C-11.37351562 40.13277344 -10.74703125 40.26554687 -10.1015625 40.40234375 C-9.28429687 40.57894531 -8.46703125 40.75554687 -7.625 40.9375 C-6.81289063 41.11152344 -6.00078125 41.28554687 -5.1640625 41.46484375 C-3 42 -3 42 -1 43 C-1 43.66 -1 44.32 -1 45 C-1.84304688 44.7834375 -2.68609375 44.566875 -3.5546875 44.34375 C-4.65039062 44.0653125 -5.74609375 43.786875 -6.875 43.5 C-7.96554687 43.2215625 -9.05609375 42.943125 -10.1796875 42.65625 C-12.84205069 41.92445582 -12.84205069 41.92445582 -15 42 C-15 40.68 -15 39.36 -15 38 C-16.85625 37.814375 -16.85625 37.814375 -18.75 37.625 C-21.94678692 37.30532131 -24.16136167 36.48170682 -27 35 C-26.75620605 34.46922852 -26.51241211 33.93845703 -26.26123047 33.39160156 C-24.39884429 29.2777538 -22.64651137 25.15435123 -21.0703125 20.921875 C-20.74933594 20.07109375 -20.42835938 19.2203125 -20.09765625 18.34375 C-19.44502947 16.60341192 -18.80452831 14.85848205 -18.17578125 13.109375 C-14.73525492 4.11740179 -10.03990043 -0.51930519 0 0 Z " fill="#2A1A63" transform="translate(311,108)"/>
<path d="M0 0 C4.28342458 3.23636524 5.77085944 7.2460342 7.8125 12.125 C8.06563965 12.72554199 8.3187793 13.32608398 8.57958984 13.94482422 C11.35861007 20.57715017 13.93110736 27.17900538 15.8125 34.125 C14.39853098 34.63257862 12.98118271 35.13074925 11.5625 35.625 C10.77359375 35.9034375 9.9846875 36.181875 9.171875 36.46875 C6.8125 37.125 6.8125 37.125 2.8125 37.125 C-0.73249432 30.59970073 -3.46511637 23.9263363 -6.01708984 16.97216797 C-8.96188471 7.87204001 -8.96188471 7.87204001 -14.1875 0.125 C-9.26884535 -1.51455155 -4.92314299 -1.35145102 0 0 Z " fill="#833DD7" transform="translate(200.1875,108.875)"/>
<path d="M0 0 C0.33 0 0.66 0 1 0 C1.06731323 1.17187866 1.06731323 1.17187866 1.13598633 2.36743164 C1.34829871 5.93338074 1.58021826 9.49779827 1.8125 13.0625 C1.88275391 14.29162109 1.95300781 15.52074219 2.02539062 16.78710938 C2.6341241 25.8207142 3.72710434 32.12004992 10 39 C10.66 39.33 11.32 39.66 12 40 C12 40.66 12 41.32 12 42 C21.2768197 45.97577987 32.16947393 46.36237448 42 44 C41.67 44.99 41.34 45.98 41 47 C39.329375 47.185625 39.329375 47.185625 37.625 47.375 C33.96896323 47.6465813 33.96896323 47.6465813 32 50 C31.63105418 52.03060659 31.63105418 52.03060659 31.5859375 54.3515625 C31.54726562 55.20234375 31.50859375 56.053125 31.46875 56.9296875 C31.42234375 58.26386719 31.42234375 58.26386719 31.375 59.625 C31.33632812 60.5221875 31.29765625 61.419375 31.2578125 62.34375 C31.16340643 64.5622927 31.07783252 66.78082403 31 69 C30.67 69 30.34 69 30 69 C30 63.72 30 58.44 30 53 C28.80375 53.144375 27.6075 53.28875 26.375 53.4375 C16.57349109 53.45300872 6.74973115 46.59973713 0 40 C-1.00126024 39.00126183 -2.0013468 38.00134499 -3 37 C-3.66 36.34 -4.32 35.68 -5 35 C-5.165 34.319375 -5.33 33.63875 -5.5 32.9375 C-5.665 32.298125 -5.83 31.65875 -6 31 C-6.66 30.67 -7.32 30.34 -8 30 C-9.04976964 26.85069107 -9.10131595 24.61185544 -9.0625 21.3125 C-9.05347656 20.31863281 -9.04445312 19.32476562 -9.03515625 18.30078125 C-9.02355469 17.54152344 -9.01195312 16.78226562 -9 16 C-11.31 16 -13.62 16 -16 16 C-16 15.67 -16 15.34 -16 15 C-10.72 15 -5.44 15 0 15 C0 10.05 0 5.1 0 0 Z " fill="#5029A1" transform="translate(220,322)"/>
<path d="M0 0 C9.57 0 19.14 0 29 0 C29 2.97 29 5.94 29 9 C19.76 9 10.52 9 1 9 C1 15.6 1 22.2 1 29 C7.01047318 27.3675258 13.01646529 25.72857669 19 24 C19 24.66 19 25.32 19 26 C17.35 26.33 15.7 26.66 14 27 C14 27.66 14 28.32 14 29 C8.42100437 31.26175499 6.30337224 32.05056204 0 31 C0 20.77 0 10.54 0 0 Z " fill="#2F1B6D" transform="translate(250,322)"/>
<path d="M0 0 C12.54 0 25.08 0 38 0 C38 1.65 38 3.3 38 5 C30.5702453 11.07889021 20.06306688 10.80731455 11 10 C6.65300165 8.75967207 3.20496917 7.20496917 0 4 C0 2.68 0 1.36 0 0 Z " fill="#0B0324" transform="translate(233,273)"/>
<path d="M0 0 C2.875 0.3125 2.875 0.3125 6 1 C8.48833262 4.73249893 8.36309518 6.91946402 8.4375 11.375 C8.47746094 12.68210938 8.51742188 13.98921875 8.55859375 15.3359375 C7.87424164 19.82490448 6.54303798 21.25717268 3 24 C0.5 24.1875 0.5 24.1875 -2 23 C-3.73473712 21.05874656 -5.4045651 19.05727132 -7 17 C-7.99 16.34 -8.98 15.68 -10 15 C-9.45230629 10.81761166 -7.10111111 8.40131455 -4.4375 5.25 C-3.19806641 3.77273437 -3.19806641 3.77273437 -1.93359375 2.265625 C-1.29550781 1.51796875 -0.65742188 0.7703125 0 0 Z " fill="#7D4AC4" transform="translate(293,220)"/>
<path d="M0 0 C3.50415706 5.25623558 2.6643103 11.89221501 2 18 C0.65510981 21.05060459 -0.64386017 22.58495667 -3 25 C-6.2788016 24.70954398 -7.62326801 24.44129127 -9.80078125 21.890625 C-10.29964844 21.01921875 -10.79851562 20.1478125 -11.3125 19.25 C-11.82425781 18.38890625 -12.33601562 17.5278125 -12.86328125 16.640625 C-14.11048437 13.74334216 -14.48370899 12.11169494 -14 9 C-12.5390625 6.796875 -12.5390625 6.796875 -10.625 4.75 C-9.99851563 4.06421875 -9.37203125 3.3784375 -8.7265625 2.671875 C-5.9026365 -0.06260538 -3.87003769 -0.38700377 0 0 Z " fill="#AD91D1" transform="translate(213,220)"/>
<path d="M0 0 C0.33 0 0.66 0 1 0 C1.21914063 0.82242188 1.43828125 1.64484375 1.6640625 2.4921875 C5.2869533 15.2459413 10.4502655 23.86163339 21 32 C17.95318939 34.03120707 17.39881676 34.24659875 13.98828125 34.1953125 C13.23095703 34.18886719 12.47363281 34.18242187 11.69335938 34.17578125 C10.90767578 34.15902344 10.12199219 34.14226562 9.3125 34.125 C8.51521484 34.11597656 7.71792969 34.10695313 6.89648438 34.09765625 C4.930861 34.07411585 2.96539225 34.03824547 1 34 C0.67 34.99 0.34 35.98 0 37 C0 24.79 0 12.58 0 0 Z " fill="#271468" transform="translate(348,245)"/>
<path d="M0 0 C5.10400916 3.85636248 7.70276368 9.9736695 8.625 16.25 C8.686875 17.19875 8.74875 18.1475 8.8125 19.125 C4.57419024 16.29946016 4.83534652 14.00319112 3.8125 9.125 C3.4825 10.775 3.1525 12.425 2.8125 14.125 C2.4825 13.465 2.1525 12.805 1.8125 12.125 C-0.66535723 15.78791938 -1.67714169 18.7359185 -2.1875 23.125 C-4.29948243 21.01301757 -4.95731621 19.58159167 -6.0625 16.84375 C-6.40796875 16.00199219 -6.7534375 15.16023438 -7.109375 14.29296875 C-7.828125 12.51432292 -8.546875 10.73567708 -9.265625 8.95703125 C-9.61109375 8.11527344 -9.9565625 7.27351563 -10.3125 6.40625 C-10.62445313 5.63345703 -10.93640625 4.86066406 -11.2578125 4.06445312 C-12.1377984 1.95338141 -12.1377984 1.95338141 -14.1875 0.125 C-9.26884535 -1.51455155 -4.92314299 -1.35145102 0 0 Z " fill="#8544D6" transform="translate(200.1875,108.875)"/>
<path d="M0 0 C5.9622533 0.14542081 9.74874672 3.13351799 14 7 C16.95083701 10.68854627 17.42630459 13.31064954 17 18 C16.67 18.33 16.34 18.66 16 19 C10.33926409 18.7169632 7.03793993 18.25620696 3 14 C-2.06285 7.47697494 -2.06285 7.47697494 -1.875 3.0625 C-1 1 -1 1 0 0 Z " fill="#9F70DD" transform="translate(310,351)"/>
<path d="M0 0 C0.84205836 2.37922307 1.14174203 3.59929592 0.28735352 6.01464844 C-0.09493408 6.7059082 -0.47722168 7.39716797 -0.87109375 8.109375 C-1.28037109 8.86347656 -1.68964844 9.61757812 -2.11132812 10.39453125 C-2.54896484 11.17183594 -2.98660156 11.94914063 -3.4375 12.75 C-3.87126953 13.54277344 -4.30503906 14.33554688 -4.75195312 15.15234375 C-5.82392454 17.10780809 -6.90678122 19.05635908 -8 21 C-8.66 20.67 -9.32 20.34 -10 20 C-10 19.34 -10 18.68 -10 18 C-10.66 18 -11.32 18 -12 18 C-12.04898438 17.00097656 -12.09796875 16.00195312 -12.1484375 14.97265625 C-12.22320312 13.68230469 -12.29796875 12.39195312 -12.375 11.0625 C-12.44460937 9.77472656 -12.51421875 8.48695313 -12.5859375 7.16015625 C-12.72257813 6.11730469 -12.85921875 5.07445312 -13 4 C-13.66 3.67 -14.32 3.34 -15 3 C-15.33 3.99 -15.66 4.98 -16 6 C-17.65 6 -19.3 6 -21 6 C-18.00474399 2.86859599 -16.8188058 2.02163863 -12.3046875 1.90234375 C-10.82809348 1.90899507 -9.35151596 1.92092426 -7.875 1.9375 C-7.12089844 1.94201172 -6.36679688 1.94652344 -5.58984375 1.95117188 C-3.72652873 1.96296501 -1.86325445 1.98090058 0 2 C0 1.34 0 0.68 0 0 Z " fill="#5A35B2" transform="translate(152,199)"/>
<path d="M0 0 C3 1 3 1 4.6875 3.9375 C6 7 6 7 6 9 C6.680625 9.20625 7.36125 9.4125 8.0625 9.625 C10.73037054 10.87379046 12.03301192 11.85157623 14.125 13.8125 C21.00090571 19.91112941 28.94062457 22.55445695 38 23 C38 23.66 38 24.32 38 25 C35.43721301 25.05420701 32.87558517 25.09377007 30.3125 25.125 C29.59126953 25.14175781 28.87003906 25.15851563 28.12695312 25.17578125 C23.97642808 25.21368559 20.67574874 25.01006528 17 23 C16.67 22.34 16.34 21.68 16 21 C14.34151823 19.98648336 12.67334039 18.98879205 11 18 C6.84760822 15.10451286 4.85513894 12.43432326 2.6875 7.875 C2.17574219 6.82054687 1.66398438 5.76609375 1.13671875 4.6796875 C0 2 0 2 0 0 Z " fill="#39207A" transform="translate(212,352)"/>
<path d="M0 0 C-7.9089991 6.77942792 -20.01325217 6.44623085 -29.90625 6.36328125 C-31.07458374 6.36377975 -32.24291748 6.36427826 -33.44665527 6.36479187 C-35.89023561 6.36247114 -38.33381925 6.35286265 -40.77734375 6.33618164 C-44.51844497 6.31238266 -48.2588412 6.31566185 -52 6.32226562 C-54.38542091 6.31669436 -56.77083884 6.30958797 -59.15625 6.30078125 C-60.27084595 6.30169266 -61.38544189 6.30260406 -62.53381348 6.30354309 C-63.57259644 6.29401108 -64.61137939 6.28447906 -65.68164062 6.2746582 C-66.5906311 6.27005081 -67.49962158 6.26544342 -68.43615723 6.26069641 C-71.25635044 5.9739338 -73.42855916 5.16594213 -76 4 C-76 3.67 -76 3.34 -76 3 C-75.25053604 3.00222061 -74.50107208 3.00444122 -73.72889709 3.00672913 C-66.68017709 3.02673179 -59.63146685 3.041974 -52.58272648 3.05181217 C-48.9585404 3.05704002 -45.3343777 3.06413587 -41.71020508 3.07543945 C-38.21540025 3.08627184 -34.72061796 3.09227758 -31.22579765 3.09487724 C-29.23760611 3.09763551 -27.24942369 3.10544688 -25.26124573 3.11329651 C-23.45949135 3.11340981 -23.45949135 3.11340981 -21.62133789 3.11352539 C-20.55766495 3.115746 -19.493992 3.11796661 -18.39808655 3.12025452 C-16.04756586 3.27116763 -16.04756586 3.27116763 -15 2 C-13.42736203 1.60101592 -11.84104399 1.25523808 -10.25 0.9375 C-9.38890625 0.76089844 -8.5278125 0.58429688 -7.640625 0.40234375 C-5.04751609 0.00723988 -2.61823798 -0.07063592 0 0 Z " fill="#6E42B4" transform="translate(302,285)"/>
<path d="M0 0 C1.26705277 3.37880738 0.76876598 6.22439783 0.26220703 9.73046875 C-0.2092795 13.81141737 -0.10346151 17.89754674 -0.0625 22 C-0.05798828 22.87011719 -0.05347656 23.74023438 -0.04882812 24.63671875 C-0.0371736 26.75784293 -0.01924357 28.8789311 0 31 C0.55429688 31.24234375 1.10859375 31.4846875 1.6796875 31.734375 C2.40414062 32.06953125 3.12859375 32.4046875 3.875 32.75 C4.59429687 33.07484375 5.31359375 33.3996875 6.0546875 33.734375 C8.37051052 35.24105504 9.07345001 36.42177393 10 39 C9.625 41.25 9.625 41.25 9 43 C6.69 43.66 4.38 44.32 2 45 C1.505 43.515 1.505 43.515 1 42 C0.34 42 -0.32 42 -1 42 C-0.67 45.63 -0.34 49.26 0 53 C-1.485 53.495 -1.485 53.495 -3 54 C-3 49.05 -3 44.1 -3 39 C1 40 1 40 3 41 C3 41.66 3 42.32 3 43 C4.32 43 5.64 43 7 43 C6.61135346 39.54863159 6.61135346 39.54863159 5 36 C3.10516632 34.91259409 3.10516632 34.91259409 0.90625 34.26953125 C-0.18719727 33.90178589 -0.18719727 33.90178589 -1.30273438 33.52661133 C-1.86283203 33.35282959 -2.42292969 33.17904785 -3 33 C-3.61916858 9.00483611 -3.61916858 9.00483611 0 0 Z " fill="#673AAB" transform="translate(253,213)"/>
<path d="M0 0 C-0.51628513 4.29731446 -1.84864872 6.45096533 -4.75 9.625 C-5.42546875 10.38039062 -6.1009375 11.13578125 -6.796875 11.9140625 C-10.51512442 15.43453269 -12.80685842 17 -18 17 C-17.18627337 10.08332363 -13.00101258 5.42497587 -7.81640625 1.125 C-5.17424225 -0.51143706 -3.0151695 -0.44124432 0 0 Z " fill="#EB62A1" transform="translate(198,170)"/>
<path d="M0 0 C2.46662244 3.69993365 2.47969937 6.82541608 2.6875 11.125 C2.73455078 11.86621094 2.78160156 12.60742188 2.83007812 13.37109375 C2.93458359 15.24533927 2.97270642 17.12304163 3 19 C2 20 2 20 -1.0625 20.0625 C-2.031875 20.041875 -3.00125 20.02125 -4 20 C-5.58035774 16.83928451 -5.22575346 13.46725496 -5.25 10 C-5.270625 9.26265625 -5.29125 8.5253125 -5.3125 7.765625 C-5.328125 5.625 -5.328125 5.625 -5 2 C-2 0 -2 0 0 0 Z " fill="#692FBB" transform="translate(211,221)"/>
<path d="M0 0 C2.29296875 1.328125 2.29296875 1.328125 4 3 C4.25 6.1875 4.25 6.1875 4 9 C2.68 9 1.36 9 0 9 C0 8.34 0 7.68 0 7 C-2.64 6.34 -5.28 5.68 -8 5 C-7.67 5.99 -7.34 6.98 -7 8 C-10.22791555 10.1519437 -11.28400809 10.20086443 -15 10 C-15.42122669 6.29320509 -15.47815304 4.60566051 -13.125 1.625 C-8.81831469 -0.61447636 -4.77147244 -0.86119259 0 0 Z " fill="#020113" transform="translate(256,247)"/>
<path d="M0 0 C0.33 0 0.66 0 1 0 C1.05081236 7.56222659 1.08578087 15.12440895 1.10986328 22.68676758 C1.11990555 25.25807338 1.13354195 27.8293678 1.15087891 30.40063477 C1.17520484 34.10175387 1.18650109 37.80272164 1.1953125 41.50390625 C1.20563507 42.64896133 1.21595764 43.79401642 1.22659302 44.97377014 C1.22739185 50.68807717 1.11021306 55.6518282 -1 61 C-3.125 62.9375 -3.125 62.9375 -5 64 C-5 63.34 -5 62.68 -5 62 C-5.66 61.67 -6.32 61.34 -7 61 C-6.01 61 -5.02 61 -4 61 C-4 60.34 -4 59.68 -4 59 C-3.34 59 -2.68 59 -2 59 C-1.98969254 58.40833038 -1.97938507 57.81666077 -1.96876526 57.20706177 C-1.85998746 51.00936405 -1.74545444 44.81179106 -1.62768555 38.61425781 C-1.58456349 36.30601631 -1.54287402 33.99774756 -1.50268555 31.68945312 C-1.44442809 28.35798963 -1.38089797 25.02666046 -1.31640625 21.6953125 C-1.29133751 20.165009 -1.29133751 20.165009 -1.26576233 18.60379028 C-1.13867301 12.35764391 -0.72532741 6.20550199 0 0 Z " fill="#8D5ECA" transform="translate(375,213)"/>
<path d="M0 0 C-0.36377603 8.87613507 -2.41911653 15.80302519 -8.37109375 22.61328125 C-11.89848164 25.61621339 -17.2680117 29 -22 29 C-21.505 27.515 -21.505 27.515 -21 26 C-19.68 26 -18.36 26 -17 26 C-16.67 25.01 -16.34 24.02 -16 23 C-12.4375 21.8125 -12.4375 21.8125 -9 21 C-9.33 19.35 -9.66 17.7 -10 16 C-9.01 16 -8.02 16 -7 16 C-7 13.36 -7 10.72 -7 8 C-8.32 7.67 -9.64 7.34 -11 7 C-9.54634731 5.82750647 -8.08692581 4.66216184 -6.625 3.5 C-5.81289063 2.8503125 -5.00078125 2.200625 -4.1640625 1.53125 C-2 0 -2 0 0 0 Z " fill="#2A1556" transform="translate(280,338)"/>
<path d="M0 0 C0.99 0.33 1.98 0.66 3 1 C2.01 1.66 1.02 2.32 0 3 C-0.33388422 5.54173119 -0.46413474 7.77251438 -0.4375 10.3125 C-0.45683594 11.62863281 -0.47617187 12.94476563 -0.49609375 14.30078125 C0.05781233 18.43108881 1.12846436 20.06022985 4 23 C2.35 23.33 0.7 23.66 -1 24 C-1.39832031 23.51789063 -1.79664063 23.03578125 -2.20703125 22.5390625 C-2.73683594 21.90742188 -3.26664062 21.27578125 -3.8125 20.625 C-4.33457031 19.99851563 -4.85664063 19.37203125 -5.39453125 18.7265625 C-7.08225739 16.7778952 -7.08225739 16.7778952 -10 15 C-9.45230629 10.81761166 -7.10111111 8.40131455 -4.4375 5.25 C-3.19806641 3.77273437 -3.19806641 3.77273437 -1.93359375 2.265625 C-1.29550781 1.51796875 -0.65742188 0.7703125 0 0 Z " fill="#A696B4" transform="translate(293,220)"/>
<path d="M0 0 C0.33 0 0.66 0 1 0 C1.33 8.25 1.66 16.5 2 25 C1.67 25 1.34 25 1 25 C0.67 22.69 0.34 20.38 0 18 C-1.65 17.67 -3.3 17.34 -5 17 C-4.08796212 24.87232694 -2.80324903 31.04923453 1 38 C0.67 38.66 0.34 39.32 0 40 C-5 35 -5 35 -5.5 32.9375 C-5.665 32.298125 -5.83 31.65875 -6 31 C-6.66 30.67 -7.32 30.34 -8 30 C-9.04976964 26.85069107 -9.10131595 24.61185544 -9.0625 21.3125 C-9.05347656 20.31863281 -9.04445312 19.32476562 -9.03515625 18.30078125 C-9.02355469 17.54152344 -9.01195312 16.78226562 -9 16 C-11.31 16 -13.62 16 -16 16 C-16 15.67 -16 15.34 -16 15 C-10.72 15 -5.44 15 0 15 C0 10.05 0 5.1 0 0 Z " fill="#635192" transform="translate(220,322)"/>
<path d="M0 0 C0.33 0.99 0.66 1.98 1 3 C-0.32 3.99 -1.64 4.98 -3 6 C-2.01 6.33 -1.02 6.66 0 7 C0 7.99 0 8.98 0 10 C-0.68707031 10.00257813 -1.37414062 10.00515625 -2.08203125 10.0078125 C-7.7287788 10.12268684 -7.7287788 10.12268684 -12.125 13.25 C-13.42756614 18.83242632 -13.22850417 24.29585897 -13 30 C-12.34 30 -11.68 30 -11 30 C-10.67 31.65 -10.34 33.3 -10 35 C-13.51125476 31.7152778 -14.86276554 29.79079724 -15.23828125 24.890625 C-15.49033816 12.52657005 -15.49033816 12.52657005 -11 7 C-3.82420091 0 -3.82420091 0 0 0 Z " fill="#DAC2F3" transform="translate(289,212)"/>
<path d="M0 0 C2.97 0 5.94 0 9 0 C9 4.62 9 9.24 9 14 C6.36 14 3.72 14 1 14 C0.67 9.38 0.34 4.76 0 0 Z " fill="#1D143F" transform="translate(241,377)"/>
<path d="M0 0 C5.68829517 0.65009088 8.61579283 3.4287378 12.3125 7.625 C14 10 14 10 14 12 C14.66 12 15.32 12 16 12 C16.99 14.31 17.98 16.62 19 19 C17.68 19 16.36 19 15 19 C14.01 16.69 13.02 14.38 12 12 C10.68 12 9.36 12 8 12 C5.640625 10.6875 5.640625 10.6875 3.25 9 C2.45078125 8.443125 1.6515625 7.88625 0.828125 7.3125 C0.22484375 6.879375 -0.3784375 6.44625 -1 6 C-0.67 4.02 -0.34 2.04 0 0 Z " fill="#7B4AC6" transform="translate(315,346)"/>
<path d="M0 0 C9.57 0 19.14 0 29 0 C29 1.65 29 3.3 29 5 C28.34 4.01 27.68 3.02 27 2 C24.28995497 1.489395 24.28995497 1.489395 21.1171875 1.48828125 C20.06644043 1.45516846 19.01569336 1.42205566 17.93310547 1.38793945 C16.59393066 1.36304443 15.25475586 1.33814941 13.875 1.3125 C9.62625 1.209375 5.3775 1.10625 1 1 C1 10.24 1 19.48 1 29 C10.01366684 26.5446374 10.01366684 26.5446374 19 24 C19 24.66 19 25.32 19 26 C17.35 26.33 15.7 26.66 14 27 C14 27.66 14 28.32 14 29 C8.42100437 31.26175499 6.30337224 32.05056204 0 31 C0 20.77 0 10.54 0 0 Z " fill="#2D195C" transform="translate(250,322)"/>
<path d="M0 0 C4.17469271 6.26203907 4.32067261 13.14055345 4.25 20.4375 C4.25773437 21.23220703 4.26546875 22.02691406 4.2734375 22.84570312 C4.24643354 31.14266897 2.77671675 38.18316614 -1.125 45.5625 C-1.93324219 47.11130859 -1.93324219 47.11130859 -2.7578125 48.69140625 C-3.16773438 49.45324219 -3.57765625 50.21507812 -4 51 C-4.93423645 47.98968256 -5.04449911 47.13349732 -4 44 C-3.34 44 -2.68 44 -2 44 C0.63381788 36.00817026 1.41575943 28.82389121 1.25 20.4375 C1.24226563 18.82004883 1.24226563 18.82004883 1.234375 17.16992188 C1.40604565 11.91681509 1.40604565 11.91681509 0 7 C-0.04022391 4.6670134 -0.04320247 2.33293334 0 0 Z " fill="#6E41B7" transform="translate(329,216)"/>
<path d="M0 0 C0.66 0 1.32 0 2 0 C1.5359375 1.1446875 1.5359375 1.1446875 1.0625 2.3125 C-1.6106238 9.07393079 -2.67558244 17.37691571 -0.140625 24.37109375 C1.02600666 26.40347283 1.02600666 26.40347283 3 29 C3.33 29.99 3.66 30.98 4 32 C4.99 32.33 5.98 32.66 7 33 C4.50907189 34.24546405 3.58919267 33.7767578 1 33 C1 32.34 1 31.68 1 31 C0.34 31 -0.32 31 -1 31 C-5.4263519 20.9669357 -4.86333511 11.08870929 -1 1 C-0.67 0.67 -0.34 0.34 0 0 Z " fill="#7A43C2" transform="translate(276,218)"/>
<path d="M0 0 C0.33 0 0.66 0 1 0 C1.06058594 1.16917969 1.12117188 2.33835937 1.18359375 3.54296875 C1.26804034 5.09115614 1.35268625 6.63933268 1.4375 8.1875 C1.47681641 8.95642578 1.51613281 9.72535156 1.55664062 10.51757812 C1.77507034 14.43251075 2.08692108 18.17120688 3 22 C4.77119803 21.85866501 6.54195287 21.71176792 8.3125 21.5625 C9.29863281 21.48128906 10.28476562 21.40007812 11.30078125 21.31640625 C14.09375599 21.08187441 14.09375599 21.08187441 17 20 C19.1875 20.9375 19.1875 20.9375 21 22 C17.95318939 24.03120707 17.39881676 24.24659875 13.98828125 24.1953125 C13.23095703 24.18886719 12.47363281 24.18242187 11.69335938 24.17578125 C10.90767578 24.15902344 10.12199219 24.14226562 9.3125 24.125 C8.51521484 24.11597656 7.71792969 24.10695313 6.89648438 24.09765625 C4.930861 24.07411585 2.96539225 24.03824547 1 24 C0.67 24.99 0.34 25.98 0 27 C0 18.09 0 9.18 0 0 Z " fill="#352B67" transform="translate(348,255)"/>
<path d="M0 0 C12.54 0 25.08 0 38 0 C38 2.64 38 5.28 38 8 C35.4375 10.5625 35.4375 10.5625 32 12 C28.125 11.75 28.125 11.75 25 11 C28.09309173 8.93793884 30.73124212 8.08826921 34.2578125 7.07421875 C35.12019531 6.54248047 35.12019531 6.54248047 36 6 C36.33 4.35 36.66 2.7 37 1 C24.79 1 12.58 1 0 1 C0 0.67 0 0.34 0 0 Z " fill="#7047B1" transform="translate(234,272)"/>
<path d="M0 0 C0.66 0 1.32 0 2 0 C2 4.29 2 8.58 2 13 C1.67 13 1.34 13 1 13 C1 11.02 1 9.04 1 7 C-0.00160156 7.03480469 -1.00320312 7.06960938 -2.03515625 7.10546875 C-15.15469509 7.4216419 -15.15469509 7.4216419 -21 4 C-21 3.01 -21 2.02 -21 1 C-20.01 1.33 -19.02 1.66 -18 2 C-18.33 2.66 -18.66 3.32 -19 4 C-12.73 4.33 -6.46 4.66 0 5 C0 3.35 0 1.7 0 0 Z " fill="#403868" transform="translate(151,272)"/>
<path d="M0 0 C0.66 0.33 1.32 0.66 2 1 C1.67 6.28 1.34 11.56 1 17 C2.65 17 4.3 17 6 17 C5.67 16.01 5.34 15.02 5 14 C4.931009 11.93854893 4.91532273 9.87498599 4.9375 7.8125 C4.94652344 6.72582031 4.95554688 5.63914063 4.96484375 4.51953125 C4.97644531 3.68808594 4.98804688 2.85664063 5 2 C5.33 2 5.66 2 6 2 C6.19386492 4.64551056 6.38038267 7.29117783 6.5625 9.9375 C6.61857422 10.69224609 6.67464844 11.44699219 6.73242188 12.22460938 C6.86176157 14.14745958 6.93516912 16.07389548 7 18 C6 19 6 19 2.9375 19.0625 C1.968125 19.041875 0.99875 19.02125 0 19 C-1.58696844 15.82606311 -1.1431447 12.41825795 -1.125 8.9375 C-1.12886719 8.19177734 -1.13273438 7.44605469 -1.13671875 6.67773438 C-1.12663501 1.12663501 -1.12663501 1.12663501 0 0 Z " fill="#7445BB" transform="translate(207,222)"/>
<path d="M0 0 C0.6875 1.75 0.6875 1.75 1 4 C-0.4375 6.25 -0.4375 6.25 -2 8 C-2 6.68 -2 5.36 -2 4 C-4.97 4 -7.94 4 -11 4 C-11 8.62 -11 13.24 -11 18 C-11.33 18 -11.66 18 -12 18 C-12.04898438 17.00097656 -12.09796875 16.00195312 -12.1484375 14.97265625 C-12.22320312 13.68230469 -12.29796875 12.39195312 -12.375 11.0625 C-12.44460937 9.77472656 -12.51421875 8.48695313 -12.5859375 7.16015625 C-12.72257813 6.11730469 -12.85921875 5.07445312 -13 4 C-13.66 3.67 -14.32 3.34 -15 3 C-15.33 3.99 -15.66 4.98 -16 6 C-17.65 6 -19.3 6 -21 6 C-18.00474399 2.86859599 -16.8188058 2.02163863 -12.3046875 1.90234375 C-10.82809348 1.90899507 -9.35151596 1.92092426 -7.875 1.9375 C-7.12089844 1.94201172 -6.36679688 1.94652344 -5.58984375 1.95117188 C-3.72652873 1.96296501 -1.86325445 1.98090058 0 2 C0 1.34 0 0.68 0 0 Z " fill="#554195" transform="translate(152,199)"/>
<path d="M0 0 C0.87205078 0.44859375 0.87205078 0.44859375 1.76171875 0.90625 C10.10221122 4.98188332 18.88573445 5.97929832 28 7 C28 7.66 28 8.32 28 9 C25.43721301 9.05420701 22.87558517 9.09377007 20.3125 9.125 C19.59126953 9.14175781 18.87003906 9.15851563 18.12695312 9.17578125 C13.97642808 9.21368559 10.67574874 9.01006528 7 7 C6.67 6.34 6.34 5.68 6 5 C5.175 4.505 4.35 4.01 3.5 3.5 C1 2 1 2 0 0 Z " fill="#2B1A5F" transform="translate(222,368)"/>
<path d="M0 0 C1.98 0.99 3.96 1.98 6 3 C6 3.66 6 4.32 6 5 C6.66 5 7.32 5 8 5 C8 5.66 8 6.32 8 7 C8.66 7 9.32 7 10 7 C10 7.66 10 8.32 10 9 C10.99 9.33 11.98 9.66 13 10 C14.38576923 11.62332967 15.72641268 13.28724465 17 15 C16.67 15.66 16.34 16.32 16 17 C15.01 16.67 14.02 16.34 13 16 C13 15.34 13 14.68 13 14 C12.401875 13.731875 11.80375 13.46375 11.1875 13.1875 C9.02775192 12.01506533 7.64209744 10.80630718 6 9 C6.33 8.01 6.66 7.02 7 6 C5.68 6.33 4.36 6.66 3 7 C0 2.25 0 2.25 0 0 Z " fill="#4A445F" transform="translate(321,157)"/>
<path d="M0 0 C0.99 0.495 0.99 0.495 2 1 C2 2.65 2 4.3 2 6 C1.01 6.495 1.01 6.495 0 7 C0 4.69 0 2.38 0 0 Z M-11 3 C-7 4 -7 4 -5 5 C-5 5.66 -5 6.32 -5 7 C-3.35 7 -1.7 7 0 7 C0 7.33 0 7.66 0 8 C-2.31 8.33 -4.62 8.66 -7 9 C-7 8.01 -7 7.02 -7 6 C-7.66 6 -8.32 6 -9 6 C-8.67 9.63 -8.34 13.26 -8 17 C-8.99 17.33 -9.98 17.66 -11 18 C-11 13.05 -11 8.1 -11 3 Z " fill="#6F3CB8" transform="translate(261,249)"/>
<path d="M0 0 C0.66 0.33 1.32 0.66 2 1 C0.86621648 5.44791994 -0.24343253 9.28923609 -3 13 C-3.639375 13.28875 -4.27875 13.5775 -4.9375 13.875 C-8.26088647 15.68775626 -9.28158183 18.68590782 -11 22 C-11.33 21.01 -11.66 20.02 -12 19 C-13.98 19 -15.96 19 -18 19 C-17.42121094 18.72542969 -16.84242188 18.45085937 -16.24609375 18.16796875 C-9.62886001 14.72700721 -4.87669955 10.34369017 -1 4 C-0.62397453 2.67807196 -0.27913486 1.34572383 0 0 Z " fill="#3B1541" transform="translate(198,169)"/>
<path d="M0 0 C1.9375 1.6875 1.9375 1.6875 3 3 C0 3 0 3 -2.875 1.5 C-8.88788195 -1.16813658 -16.4368933 -1.2284741 -22.6171875 0.90234375 C-25.02694426 2.06305904 -25.02694426 2.06305904 -28 4 C-28.33 3.01 -28.66 2.02 -29 1 C-19.1767777 -2.96375637 -9.83065323 -5.10437764 0 0 Z " fill="#7D50BE" transform="translate(309,212)"/>
<path d="M0 0 C1.65 0 3.3 0 5 0 C6.51277289 1.51277289 6.5604507 3.17587673 7 5.25 C7.25910156 6.46236328 7.25910156 6.46236328 7.5234375 7.69921875 C8.02706715 10.13067664 8.52815792 12.56214927 9 15 C7.1875 14.5 7.1875 14.5 5 13 C3.73847391 10.4136076 2.84356955 7.74799171 2 5 C1.67 6.65 1.34 8.3 1 10 C0.67 10 0.34 10 0 10 C0 6.7 0 3.4 0 0 Z " fill="#502A9B" transform="translate(215,339)"/>
<path d="M0 0 C2.87602455 -0.10852923 5.74790832 -0.1875515 8.625 -0.25 C9.43324219 -0.28351563 10.24148438 -0.31703125 11.07421875 -0.3515625 C16.57666837 -0.44103323 19.63247214 0.3334334 24 4 C25.875 6.25 25.875 6.25 27 8 C26.67 8.66 26.34 9.32 26 10 C25.34 10 24.68 10 24 10 C23.566875 9.21625 23.13375 8.4325 22.6875 7.625 C20.61719801 4.40453024 19.61499157 4.1242333 16 3 C13.24075024 2.50448723 10.47364241 2.17876173 7.6875 1.875 C6.57665039 1.74544922 6.57665039 1.74544922 5.44335938 1.61328125 C3.62961565 1.40265295 1.81489457 1.20047014 0 1 C0 0.67 0 0.34 0 0 Z " fill="#8F67C5" transform="translate(348,201)"/>
<path d="M0 0 C3.2542015 2.83430453 4.5206753 4.68607774 5 9 C3.58603098 9.50757862 2.16868271 10.00574925 0.75 10.5 C-0.03890625 10.7784375 -0.8278125 11.056875 -1.640625 11.34375 C-4 12 -4 12 -8 12 C-8.99 9.36 -9.98 6.72 -11 4 C-10.34 4 -9.68 4 -9 4 C-8.34 5.65 -7.68 7.3 -7 9 C-4.36 9 -1.72 9 1 9 C0.67 8.34 0.34 7.68 0 7 C-0.04022391 4.6670134 -0.04320247 2.33293334 0 0 Z " fill="#7A44C8" transform="translate(211,134)"/>
<path d="M0 0 C0.33 0 0.66 0 1 0 C1.32987261 6.15762212 0.73974171 10.42266865 -2 16 C-3.32412025 16.36823154 -4.65785486 16.70413634 -6 17 C-6.309375 17.804375 -6.61875 18.60875 -6.9375 19.4375 C-8 22 -8 22 -10.375 23.375 C-13.13945539 24.03320367 -14.34311004 23.78010812 -17 23 C-15.80375 22.505 -14.6075 22.01 -13.375 21.5 C-7.60709559 18.62627458 -4.51664555 14.0332911 -1.6875 8.375 C-0.88529555 5.60374826 -0.39845598 2.85560122 0 0 Z " fill="#6E3DB3" transform="translate(279,342)"/>
<path d="M0 0 C0.66 0.33 1.32 0.66 2 1 C1.01 3.31 0.02 5.62 -1 8 C0.2375 8.7115625 0.2375 8.7115625 1.5 9.4375 C2.325 9.953125 3.15 10.46875 4 11 C4 11.33 4 11.66 4 12 C-0.34263862 12.16702456 -3.20960634 12.12999997 -7 10 C-6.40917986 8.51545194 -5.80187345 7.03745649 -5.1875 5.5625 C-4.85105469 4.73878906 -4.51460938 3.91507813 -4.16796875 3.06640625 C-3 1 -3 1 0 0 Z " fill="#372C69" transform="translate(291,133)"/>
<path d="M0 0 C3.71368887 1.23789629 4.77354181 2.85224877 7 6 C7 6.66 7 7.32 7 8 C7.66 8 8.32 8 9 8 C9.99 10.31 10.98 12.62 12 15 C10.68 15 9.36 15 8 15 C7.01 12.69 6.02 10.38 5 8 C3.68 8 2.36 8 1 8 C-0.33541537 5.32916926 0 2.92701445 0 0 Z " fill="#845AC5" transform="translate(322,350)"/>
<path d="M0 0 C0.99 0.33 1.98 0.66 3 1 C2.01 1.66 1.02 2.32 0 3 C-0.33388422 5.54173119 -0.46413474 7.77251438 -0.4375 10.3125 C-0.45683594 11.62863281 -0.47617187 12.94476563 -0.49609375 14.30078125 C0.05781233 18.43108881 1.12846436 20.06022985 4 23 C-0.875 22.125 -0.875 22.125 -2 21 C-2.07258946 18.81360547 -2.08373783 16.62499611 -2.0625 14.4375 C-2.05347656 13.23996094 -2.04445313 12.04242188 -2.03515625 10.80859375 C-2.02355469 9.88175781 -2.01195312 8.95492187 -2 8 C-2.61875 8.495 -3.2375 8.99 -3.875 9.5 C-6 11 -6 11 -8 11 C-6.63629701 8.00779732 -5.05091917 5.70973471 -2.875 3.25 C-2.33617187 2.63640625 -1.79734375 2.0228125 -1.2421875 1.390625 C-0.62730469 0.70226562 -0.62730469 0.70226562 0 0 Z " fill="#AA98BC" transform="translate(293,220)"/>
<path d="M0 0 C0.86109375 0.00064453 1.7221875 0.00128906 2.609375 0.00195312 C3.95515625 0.02612305 3.95515625 0.02612305 5.328125 0.05078125 C6.20984375 0.04755859 7.0915625 0.04433594 8 0.04101562 C13.24814621 0.0839692 17.60889113 0.68108924 22.578125 2.36328125 C23.90942615 2.70464052 25.24170648 3.04254081 26.578125 3.36328125 C26.578125 4.02328125 26.578125 4.68328125 26.578125 5.36328125 C25.83949219 5.14671875 25.10085938 4.93015625 24.33984375 4.70703125 C13.44126616 1.71580792 3.72089243 2.15632772 -7.421875 3.36328125 C-5.06477085 0.51754358 -3.66659891 -0.01405555 0 0 Z " fill="#2B135A" transform="translate(282.421875,187.63671875)"/>
<path d="M0 0 C3.3 0 6.6 0 10 0 C10 0.33 10 0.66 10 1 C7.03 1 4.06 1 1 1 C1 6.61 1 12.22 1 18 C2.32 17.34 3.64 16.68 5 16 C8.25 16.375 8.25 16.375 11 17 C9 19 9 19 0 20 C0 13.4 0 6.8 0 0 Z " fill="#7343BB" transform="translate(251,331)"/>
<path d="M0 0 C0.33 0 0.66 0 1 0 C2.06069184 6.27191698 2.77799548 11.44594645 -0.5546875 17.07421875 C-3.30995635 20.74542833 -6.35974985 24.18945779 -10 27 C-10.99 27 -11.98 27 -13 27 C-13 26.34 -13 25.68 -13 25 C-12.113125 24.46375 -11.22625 23.9275 -10.3125 23.375 C-5.10727304 19.9909872 -2.57751588 15.61228686 -1.24609375 9.58984375 C-0.74918395 6.39641642 -0.32833945 3.21478624 0 0 Z " fill="#7C4BBE" transform="translate(319,228)"/>
<path d="M0 0 C0.99 0 1.98 0 3 0 C1.33846988 5.85659906 -0.47041916 11.4590134 -3 17 C-5 14 -5 14 -4.75 10.5 C-4 7 -4 7 -2 4 C-1.34 4 -0.68 4 0 4 C0 2.68 0 1.36 0 0 Z " fill="#8B5DCC" transform="translate(321,124)"/>
<path d="M0 0 C3.3 0 6.6 0 10 0 C10.33 4.95 10.66 9.9 11 15 C10.01 14.67 9.02 14.34 8 14 C7.67 13.01 7.34 12.02 7 11 C7.33 10.67 7.66 10.34 8 10 C8.04063832 8.33382885 8.042721 6.66611905 8 5 C6.68 5 5.36 5 4 5 C3.67 4.01 3.34 3.02 3 2 C2.01 1.34 1.02 0.68 0 0 Z " fill="#28223F" transform="translate(201,338)"/>
<path d="M0 0 C0.66 0.66 1.32 1.32 2 2 C1.77551034 7.72448621 -0.01691715 11.28480453 -3 16 C-4.125 14.375 -4.125 14.375 -5 12 C-3.96937777 7.69012522 -2.04975038 3.91315983 0 0 Z " fill="#2E2843" transform="translate(345,286)"/>
<path d="M0 0 C0.66 0 1.32 0 2 0 C2 4.95 2 9.9 2 15 C-3.28 15 -8.56 15 -14 15 C-10.42613936 11.42613936 -4.85208447 12.30970752 0 12 C0 8.04 0 4.08 0 0 Z " fill="#291256" transform="translate(248,252)"/>
<path d="M0 0 C0.05416188 1.60379341 0.09286638 3.20811406 0.125 4.8125 C0.14820313 5.70582031 0.17140625 6.59914063 0.1953125 7.51953125 C0 10 0 10 -2 13 C-2.99 13 -3.98 13 -5 13 C-4.88652381 11.02013918 -4.7589065 9.04108402 -4.625 7.0625 C-4.55539063 5.96035156 -4.48578125 4.85820312 -4.4140625 3.72265625 C-4.27742187 2.82417969 -4.14078125 1.92570312 -4 1 C-2 0 -2 0 0 0 Z " fill="#120A1F" transform="translate(167,377)"/>
<path d="M0 0 C5.75 0.75 5.75 0.75 8 3 C8.125 6.125 8.125 6.125 8 9 C6.68 9 5.36 9 4 9 C4 8.34 4 7.68 4 7 C2.02 6.34 0.04 5.68 -2 5 C-1.38125 4.855625 -0.7625 4.71125 -0.125 4.5625 C2.03258322 4.06847775 2.03258322 4.06847775 4 3 C2.68 2.67 1.36 2.34 0 2 C0 1.34 0 0.68 0 0 Z " fill="#17053C" transform="translate(252,247)"/>
<path d="M0 0 C-0.33 0.66 -0.66 1.32 -1 2 C-3.33247761 2.33926947 -5.66585471 2.67240066 -8 3 C-10.3968665 5.3968665 -10.28281133 6.07028314 -10.4140625 9.3515625 C-10.45273438 10.20234375 -10.49140625 11.053125 -10.53125 11.9296875 C-10.5621875 12.81914062 -10.593125 13.70859375 -10.625 14.625 C-10.66367188 15.5221875 -10.70234375 16.419375 -10.7421875 17.34375 C-10.83659357 19.5622927 -10.92216748 21.78082403 -11 24 C-11.33 24 -11.66 24 -12 24 C-12 16.74 -12 9.48 -12 2 C-2 -1 -2 -1 0 0 Z " fill="#6235A6" transform="translate(262,367)"/>
<path d="M0 0 C2.125 0.375 2.125 0.375 4 1 C3.2884375 1.5878125 3.2884375 1.5878125 2.5625 2.1875 C-1.1120548 6.44998357 -0.10432808 12.67926772 0 18 C0.99 17.67 1.98 17.34 3 17 C3 17.66 3 18.32 3 19 C1.35 18.67 -0.3 18.34 -2 18 C-2.05382106 15.37472811 -2.09358313 12.75055287 -2.125 10.125 C-2.14175781 9.37863281 -2.15851563 8.63226563 -2.17578125 7.86328125 C-2.1933959 5.90805539 -2.10320189 3.95257979 -2 2 C-1.34 1.34 -0.68 0.68 0 0 Z " fill="#6C38B9" transform="translate(295,222)"/>
<path d="M0 0 C2.34917898 2.15341406 3.82443004 4.21667937 5.25 7.0625 C5.60578125 7.75472656 5.9615625 8.44695312 6.328125 9.16015625 C6.54984375 9.76730469 6.7715625 10.37445313 7 11 C6.67 11.66 6.34 12.32 6 13 C5.67 12.01 5.34 11.02 5 10 C2.03 9.505 2.03 9.505 -1 9 C-1.33 8.01 -1.66 7.02 -2 6 C-1.34 6 -0.68 6 0 6 C0 4.02 0 2.04 0 0 Z " fill="#4C4962" transform="translate(338,174)"/>
<path d="M0 0 C2.7972908 2.06756277 3.02692273 3.14440371 3.6875 6.6875 C3.790625 7.780625 3.89375 8.87375 4 10 C4.66 10 5.32 10 6 10 C6 11.65 6 13.3 6 15 C3.82418313 12.15118272 1.79062001 9.23915912 -0.1875 6.25 C-0.71730469 5.45078125 -1.24710937 4.6515625 -1.79296875 3.828125 C-2.39044922 2.92320312 -2.39044922 2.92320312 -3 2 C-2.01 1.34 -1.02 0.68 0 0 Z " fill="#271352" transform="translate(324,201)"/>
<path d="M0 0 C0 2.64 0 5.28 0 8 C-0.99 8.495 -0.99 8.495 -2 9 C-3.03145371 10.30915279 -4.03542166 11.64082143 -5 13 C-6.56057647 6.99778282 -6.56057647 6.99778282 -4.98828125 4.19921875 C-1.49060263 0 -1.49060263 0 0 0 Z " fill="#B5A1D1" transform="translate(205,223)"/>
<path d="M0 0 C0.66 0 1.32 0 2 0 C2 0.66 2 1.32 2 2 C8.95068039 4.79080349 15.54508438 5.63419196 23 6 C23 6.33 23 6.66 23 7 C20.36 7 17.72 7 15 7 C14.67 7.66 14.34 8.32 14 9 C14 8.34 14 7.68 14 7 C12.700625 7.0928125 12.700625 7.0928125 11.375 7.1875 C7.47065091 6.97059172 5.28622644 6.09123501 2 4 C0.625 1.8125 0.625 1.8125 0 0 Z " fill="#4A2A8E" transform="translate(230,362)"/>
<path d="M0 0 C0.45375 0.474375 0.9075 0.94875 1.375 1.4375 C2.93258204 3.09027808 2.93258204 3.09027808 5 4 C2.03 6.475 2.03 6.475 -1 9 C-1.66 8.01 -2.32 7.02 -3 6 C-3.99 6.495 -3.99 6.495 -5 7 C-3.70700306 4.11562221 -2.34058637 2.12780579 0 0 Z " fill="#CFC3E4" transform="translate(196,215)"/>
<path d="M0 0 C3 1 3 1 4.5 3.625 C6.0316893 7.07130093 7.53054292 10.5267378 9 14 C9.33 14.66 9.66 15.32 10 16 C6.94781864 14.9383717 6.03078618 14.04970979 4.296875 11.25 C3.78640625 10.1775 3.2759375 9.105 2.75 8 C2.22921875 6.9275 1.7084375 5.855 1.171875 4.75 C0 2 0 2 0 0 Z " fill="#2F1E64" transform="translate(212,352)"/>
<path d="M0 0 C0.99 1.32 1.98 2.64 3 4 C2.34 4 1.68 4 1 4 C1.99 7.63 2.98 11.26 4 15 C4.66 15 5.32 15 6 15 C6.33 16.98 6.66 18.96 7 21 C3.15116482 17.55630536 1.05641779 15.09001297 0 10 C-0.14527067 6.65877469 -0.11887127 3.34160335 0 0 Z " fill="#211249" transform="translate(222,339)"/>
<path d="M0 0 C1.98 0 3.96 0 6 0 C6.0825 0.598125 6.165 1.19625 6.25 1.8125 C6.96193694 4.55703829 6.96193694 4.55703829 11 7 C7.7 6.34 4.4 5.68 1 5 C0.67 3.35 0.34 1.7 0 0 Z " fill="#373142" transform="translate(178,314)"/>
<path d="M0 0 C0.99 0.495 0.99 0.495 2 1 C2 4.96 2 8.92 2 13 C2.99 12.67 3.98 12.34 5 12 C4.34 13.65 3.68 15.3 3 17 C1.51171875 15.94921875 1.51171875 15.94921875 0 14 C-0.29296875 10.64453125 -0.29296875 10.64453125 -0.1875 6.8125 C-0.16042969 5.54019531 -0.13335937 4.26789063 -0.10546875 2.95703125 C-0.07066406 1.98121094 -0.03585938 1.00539062 0 0 Z " fill="#4A2A9E" transform="translate(141,203)"/>
<path d="M0 0 C0.680625 -0.01417969 1.36125 -0.02835937 2.0625 -0.04296875 C4 0.1875 4 0.1875 7 2.1875 C3.52674819 3.3452506 0.63932552 3.25616652 -3 3.1875 C-3.33 4.1775 -3.66 5.1675 -4 6.1875 C-4.33 5.1975 -4.66 4.2075 -5 3.1875 C-5.66 2.5275 -6.32 1.8675 -7 1.1875 C-4.35559361 0.3060312 -2.71939248 0.02575182 0 0 Z " fill="#986ACE" transform="translate(193,107.8125)"/>
<path d="M0 0 C0.33 0 0.66 0 1 0 C1.375 2.75 1.375 2.75 1 6 C-1.5625 8.4375 -1.5625 8.4375 -5 10 C-8.875 9.75 -8.875 9.75 -12 9 C-8.91821743 6.94547829 -6.24301008 6.04091515 -2.7421875 4.9765625 C-0.78681902 4.13224181 -0.78681902 4.13224181 -0.2578125 1.8984375 C-0.17273438 1.27195312 -0.08765625 0.64546875 0 0 Z " fill="#683BAD" transform="translate(271,274)"/>
<path d="M0 0 C1.32 0.33 2.64 0.66 4 1 C2.87895467 2.31587941 1.75303035 3.62760353 0.625 4.9375 C-0.00148438 5.66839844 -0.62796875 6.39929688 -1.2734375 7.15234375 C-3 9 -3 9 -5 10 C-4.37240135 7.07120629 -3.41377341 4.63904371 -2 2 C-1.34 2 -0.68 2 0 2 C0 1.34 0 0.68 0 0 Z " fill="#3B364B" transform="translate(337,302)"/>
<path d="M0 0 C1.98 0.99 1.98 0.99 4 2 C4 6.95 4 11.9 4 17 C2.19386641 13.38773281 1.70981499 11.77887948 1.4375 7.9375 C1.22134251 5.003934 0.93801009 2.81403027 0 0 Z " fill="#9D7BCF" transform="translate(211,221)"/>
<path d="M0 0 C0.33 0 0.66 0 1 0 C1 1.98 1 3.96 1 6 C-0.32 6.33 -1.64 6.66 -3 7 C-3.33 8.32 -3.66 9.64 -4 11 C-4.66 11 -5.32 11 -6 11 C-5.34727108 6.75726205 -3.0234967 3.0234967 0 0 Z " fill="#713DBA" transform="translate(260,202)"/>
<path d="M0 0 C3.73639216 1.24546405 4.18756513 2.63404953 6 6 C5.67 6.33 5.34 6.66 5 7 C5.66 7.33 6.32 7.66 7 8 C6.67 9.65 6.34 11.3 6 13 C2.57068046 9.2440786 1.43570917 4.76533255 0 0 Z " fill="#6A5D94" transform="translate(182,137)"/>
<path d="M0 0 C-0.3125 1.9375 -0.3125 1.9375 -1 4 C-1.99 4.33 -2.98 4.66 -4 5 C-4 5.99 -4 6.98 -4 8 C-4.99 7.67 -5.98 7.34 -7 7 C-6.67 4.69 -6.34 2.38 -6 0 C-3 -1 -3 -1 0 0 Z " fill="#261665" transform="translate(184,118)"/>
<path d="M0 0 C0.99 0.33 1.98 0.66 3 1 C-6.22551253 8.66742597 -6.22551253 8.66742597 -12 10 C-12 9.34 -12 8.68 -12 8 C-11.20335937 7.63648438 -11.20335937 7.63648438 -10.390625 7.265625 C-6.26007376 5.30587441 -3.02889453 3.53371028 0 0 Z " fill="#6E42B6" transform="translate(275,338)"/>
<path d="M0 0 C0.33 0.66 0.66 1.32 1 2 C-1.01738663 7.54781322 -4.46881163 10.49919145 -9 14 C-9.66 13.67 -10.32 13.34 -11 13 C-10.31164062 12.34644531 -10.31164062 12.34644531 -9.609375 11.6796875 C-5.83645414 8.0177349 -2.7376848 4.48980308 0 0 Z " fill="#2F185F" transform="translate(326,264)"/>
<path d="M0 0 C0.6875 1.75 0.6875 1.75 1 4 C-0.4375 6.25 -0.4375 6.25 -2 8 C-2 6.68 -2 5.36 -2 4 C-4.64 4 -7.28 4 -10 4 C-10.33 3.34 -10.66 2.68 -11 2 C-7.37 2 -3.74 2 0 2 C0 1.34 0 0.68 0 0 Z " fill="#6954A2" transform="translate(152,199)"/>
<path d="M0 0 C0.99 1.32 1.98 2.64 3 4 C2 6 2 6 -1 8 C-1 7.34 -1 6.68 -1 6 C-2.98 6 -4.96 6 -7 6 C-6.21625 5.38125 -5.4325 4.7625 -4.625 4.125 C-2.03162353 2.10141339 -2.03162353 2.10141339 0 0 Z " fill="#2E2847" transform="translate(226,248)"/>
<path d="M0 0 C7.42857143 -0.28571429 7.42857143 -0.28571429 11 2 C11 2.66 11 3.32 11 4 C10.34 4 9.68 4 9 4 C9 3.34 9 2.68 9 2 C8.34 2 7.68 2 7 2 C6.67 2.99 6.34 3.98 6 5 C4.02 4.01 2.04 3.02 0 2 C0 1.34 0 0.68 0 0 Z " fill="#564780" transform="translate(304,108)"/>
<path d="M0 0 C0 1.32 0 2.64 0 4 C-0.78375 4.28875 -1.5675 4.5775 -2.375 4.875 C-5.09671632 5.84912254 -5.09671632 5.84912254 -7 8 C-9.125 7.625 -9.125 7.625 -11 7 C-9.54634731 5.82750647 -8.08692581 4.66216184 -6.625 3.5 C-5.40683594 2.52546875 -5.40683594 2.52546875 -4.1640625 1.53125 C-2 0 -2 0 0 0 Z " fill="#321963" transform="translate(280,338)"/>
<path d="M0 0 C-2.93828597 2.50298434 -5.17902761 3.46930939 -9 4 C-8.67 2.35 -8.34 0.7 -8 -1 C-4.37673261 -2.2077558 -3.35853631 -1.54311128 0 0 Z " fill="#3B354B" transform="translate(327,315)"/>
<path d="M0 0 C0.66 0 1.32 0 2 0 C1.5359375 1.1446875 1.5359375 1.1446875 1.0625 2.3125 C-0.47937062 6.21252568 -1.21925371 9.51950936 -1.5625 13.6875 C-1.64628906 14.68136719 -1.73007812 15.67523438 -1.81640625 16.69921875 C-1.87699219 17.45847656 -1.93757813 18.21773437 -2 19 C-2.33 19 -2.66 19 -3 19 C-3.55353075 5.18223235 -3.55353075 5.18223235 0 0 Z " fill="#8A58C6" transform="translate(276,218)"/>
<path d="M0 0 C0 4.24645065 -1.81750806 6.38524772 -4 10 C-4.33 9.01 -4.66 8.02 -5 7 C-6.98 7 -8.96 7 -11 7 C-10.484375 6.773125 -9.96875 6.54625 -9.4375 6.3125 C-6.07596873 4.5024447 -3.07088856 2.26003596 0 0 Z " fill="#431C4A" transform="translate(191,181)"/>
<path d="M0 0 C-0.33 1.65 -0.66 3.3 -1 5 C-1.33 3.68 -1.66 2.36 -2 1 C-2.66 1 -3.32 1 -4 1 C-4 1.66 -4 2.32 -4 3 C-9.2734375 6.22265625 -9.2734375 6.22265625 -11 7 C-11.66 6.67 -12.32 6.34 -13 6 C-6.07061503 -0.88838269 -6.07061503 -0.88838269 0 0 Z " fill="#CA629D" transform="translate(198,170)"/>
<path d="M0 0 C1.41702513 0.14230808 2.8336096 0.28900746 4.25 0.4375 C5.43335938 0.55931641 5.43335938 0.55931641 6.640625 0.68359375 C8.82364639 0.97634993 10.8773182 1.42064419 13 2 C13 2.99 13 3.98 13 5 C13.66 5.33 14.32 5.66 15 6 C13.68 6 12.36 6 11 6 C11 5.34 11 4.68 11 4 C7.37 3.01 3.74 2.02 0 1 C0 0.67 0 0.34 0 0 Z " fill="#6944AD" transform="translate(299,147)"/>
<path d="M0 0 C0.33 0.66 0.66 1.32 1 2 C1.66 2.28875 2.32 2.5775 3 2.875 C5 4 5 4 5.75 6.125 C5.8325 6.74375 5.915 7.3625 6 8 C5.34 8 4.68 8 4 8 C3.67 8.99 3.34 9.98 3 11 C2.49384702 9.73160474 1.99530901 8.46016898 1.5 7.1875 C1.2215625 6.47980469 0.943125 5.77210938 0.65625 5.04296875 C0 3 0 3 0 0 Z " fill="#444150" transform="translate(153,287)"/>
<path d="M0 0 C0.66 0.66 1.32 1.32 2 2 C0.87895467 3.31587941 -0.24696965 4.62760353 -1.375 5.9375 C-2.00148438 6.66839844 -2.62796875 7.39929688 -3.2734375 8.15234375 C-5 10 -5 10 -7 11 C-7 9.35 -7 7.7 -7 6 C-6.401875 5.938125 -5.80375 5.87625 -5.1875 5.8125 C-2.12856542 4.6763243 -1.44958901 2.82669858 0 0 Z " fill="#7342BE" transform="translate(322,266)"/>
<path d="M0 0 C2.00461299 0.65266469 4.00379834 1.32204472 6 2 C6.928125 2.309375 7.85625 2.61875 8.8125 2.9375 C9.534375 3.288125 10.25625 3.63875 11 4 C11.33 4.99 11.66 5.98 12 7 C8.65626525 6.44271087 5.96687001 5.64826111 3 4 C3 3.34 3 2.68 3 2 C2.01 1.67 1.02 1.34 0 1 C0 0.67 0 0.34 0 0 Z " fill="#261553" transform="translate(229,360)"/>
<path d="M0 0 C0.33 0.66 0.66 1.32 1 2 C1.66 2 2.32 2 3 2 C3.99 4.31 4.98 6.62 6 9 C4.68 9 3.36 9 2 9 C0.50178941 5.62902617 0 3.79557881 0 0 Z " fill="#936CC9" transform="translate(328,356)"/>
<path d="M0 0 C2 3 2 3 1.625 5.1875 C1.41875 5.785625 1.2125 6.38375 1 7 C-0.32 6.34 -1.64 5.68 -3 5 C-3 5.66 -3 6.32 -3 7 C-3.66 7 -4.32 7 -5 7 C-3.75023244 3.34683329 -3.32901247 2.21934164 0 0 Z " fill="#713DBA" transform="translate(227,271)"/>
<path d="M0 0 C0.33 0 0.66 0 1 0 C1.02578125 0.80824219 1.0515625 1.61648437 1.078125 2.44921875 C1.3552224 10.58214978 1.3552224 10.58214978 6 17 C1.125 16.125 1.125 16.125 0 15 C-0.07313567 12.46950598 -0.09247527 9.96695163 -0.0625 7.4375 C-0.05798828 6.72658203 -0.05347656 6.01566406 -0.04882812 5.28320312 C-0.03700864 3.52209987 -0.01907263 1.76103964 0 0 Z " fill="#A58AC3" transform="translate(291,226)"/>
<path d="M0 0 C3.48331435 3.01887244 4.79157144 5.56909529 6 10 C5.34 10 4.68 10 4 10 C2.97971135 8.68212715 1.98028616 7.34789347 1 6 C0.34 5.67 -0.32 5.34 -1 5 C-0.67 3.35 -0.34 1.7 0 0 Z " fill="#713DBB" transform="translate(323,206)"/>
<path d="M0 0 C-0.68707031 0.40992188 -1.37414062 0.81984375 -2.08203125 1.2421875 C-3.43361328 2.05042969 -3.43361328 2.05042969 -4.8125 2.875 C-6.15248047 3.67550781 -6.15248047 3.67550781 -7.51953125 4.4921875 C-9.37294724 5.61883092 -11.19529917 6.79686611 -13 8 C-13 7.01 -13 6.02 -13 5 C-12.360625 4.896875 -11.72125 4.79375 -11.0625 4.6875 C-10.381875 4.460625 -9.70125 4.23375 -9 4 C-8.67 3.01 -8.34 2.02 -8 1 C-4.95413501 -1.10059655 -3.45012008 -1.01261386 0 0 Z " fill="#2A1159" transform="translate(275,192)"/>
<path d="M0 0 C2.4375 0.8125 2.4375 0.8125 5 2 C5.33 2.99 5.66 3.98 6 5 C6.66 5 7.32 5 8 5 C7.67 5.66 7.34 6.32 7 7 C6.4225 6.525625 5.845 6.05125 5.25 5.5625 C3.07417916 4.0515133 1.57397552 3.45963849 -1 3 C-1.33 3.66 -1.66 4.32 -2 5 C-2.33 4.01 -2.66 3.02 -3 2 C-2.01 2 -1.02 2 0 2 C0 1.34 0 0.68 0 0 Z " fill="#8D64C8" transform="translate(315,110)"/>
<path d="M0 0 C1.55693206 2.33539809 2.90200646 4.57968756 4.1875 7.0625 C4.55230469 7.75472656 4.91710937 8.44695312 5.29296875 9.16015625 C5.52628906 9.76730469 5.75960937 10.37445313 6 11 C5.67 11.66 5.34 12.32 5 13 C0 8 0 8 -0.1953125 6.0546875 C-0.13020833 4.03645833 -0.06510417 2.01822917 0 0 Z " fill="#3D1F87" transform="translate(215,349)"/>
<path d="M0 0 C0.66 0 1.32 0 2 0 C2.22162857 2.77035709 2.42779249 5.54038995 2.625 8.3125 C2.68945312 9.09818359 2.75390625 9.88386719 2.8203125 10.69335938 C2.871875 11.45068359 2.9234375 12.20800781 2.9765625 12.98828125 C3.02893066 13.68477783 3.08129883 14.38127441 3.13525391 15.09887695 C3 17 3 17 1 20 C1 19.34 1 18.68 1 18 C0.34 17.67 -0.32 17.34 -1 17 C-0.67 16.67 -0.34 16.34 0 16 C0.07319621 13.30345146 0.09242537 10.63308542 0.0625 7.9375 C0.05798828 7.17888672 0.05347656 6.42027344 0.04882812 5.63867188 C0.0370068 3.75908129 0.01907078 1.87953101 0 0 Z " fill="#EBDAFB" transform="translate(300,223)"/>
<path d="M0 0 C1.10272046 3.30816138 1.21537818 5.70111637 0 9 C-2.5625 10.3125 -2.5625 10.3125 -5 11 C-3.77472971 6.94718288 -2.30119506 3.55639236 0 0 Z " fill="#321B7E" transform="translate(151,205)"/>
<path d="M0 0 C0.99 0.33 1.98 0.66 3 1 C1.68 3.31 0.36 5.62 -1 8 C-1.66 7.67 -2.32 7.34 -3 7 C-2.25 2.25 -2.25 2.25 0 0 Z " fill="#1C173D" transform="translate(276,342)"/>
<path d="M0 0 C0.33 0 0.66 0 1 0 C1 1.65 1 3.3 1 5 C2.65 4.34 4.3 3.68 6 3 C6.33 3.66 6.66 4.32 7 5 C3.77208445 7.1519437 2.71599191 7.20086443 -1 7 C-1.04254356 5.00045254 -1.04080783 2.99958364 -1 1 C-0.67 0.67 -0.34 0.34 0 0 Z " fill="#0D0826" transform="translate(242,250)"/>
<path d="M0 0 C1.98 0.99 3.96 1.98 6 3 C6 3.66 6 4.32 6 5 C6.66 5 7.32 5 8 5 C7.67 5.66 7.34 6.32 7 7 C5.35 6.67 3.7 6.34 2 6 C1.34 4.02 0.68 2.04 0 0 Z " fill="#5C5770" transform="translate(321,157)"/>
<path d="M0 0 C0.33 0 0.66 0 1 0 C3.11161731 9.41002278 3.11161731 9.41002278 4 14 C2.68 13.34 1.36 12.68 0 12 C0 8.04 0 4.08 0 0 Z " fill="#492C89" transform="translate(220,340)"/>
<path d="M0 0 C0.495 0.268125 0.99 0.53625 1.5 0.8125 C4.9236946 2.43875493 8.44132285 3.69515171 12 5 C12 5.33 12 5.66 12 6 C4.57142857 5 4.57142857 5 1 4 C0.67 2.68 0.34 1.36 0 0 Z " fill="#6940B1" transform="translate(232,277)"/>
<path d="M0 0 C4.29 0 8.58 0 13 0 C12.67 1.65 12.34 3.3 12 5 C11.34 5 10.68 5 10 5 C10 4.01 10 3.02 10 2 C6.7 1.67 3.4 1.34 0 1 C0 0.67 0 0.34 0 0 Z " fill="#0C012A" transform="translate(258,274)"/>
<path d="M0 0 C2 3 2 3 1.625 6.1875 C1.41875 7.115625 1.2125 8.04375 1 9 C0.34 8.67 -0.32 8.34 -1 8 C-1 7.01 -1 6.02 -1 5 C-1.99 4.67 -2.98 4.34 -4 4 C-3.34 4 -2.68 4 -2 4 C-1.34 2.68 -0.68 1.36 0 0 Z " fill="#464360" transform="translate(345,187)"/>
<path d="M0 0 C0.99 0 1.98 0 3 0 C2.55123384 1.64846769 2.09069512 3.29373455 1.625 4.9375 C1.36976563 5.85402344 1.11453125 6.77054688 0.8515625 7.71484375 C0 10 0 10 -2 11 C-1.40049704 7.31733897 -0.75241109 3.65456815 0 0 Z " fill="#956FC7" transform="translate(314,141)"/>
<path d="M0 0 C0.99 0.33 1.98 0.66 3 1 C2.34 2.65 1.68 4.3 1 6 C-0.98 5.34 -2.96 4.68 -5 4 C-4.34 3.34 -3.68 2.68 -3 2 C-2.01 2 -1.02 2 0 2 C0 1.34 0 0.68 0 0 Z " fill="#1F163F" transform="translate(269,346)"/>
<path d="M0 0 C0.33 0 0.66 0 1 0 C1.99 4.29 2.98 8.58 4 13 C0 10 0 10 -0.390625 7.51953125 C-0.34421875 6.62621094 -0.2978125 5.73289063 -0.25 4.8125 C-0.21390625 3.91144531 -0.1778125 3.01039063 -0.140625 2.08203125 C-0.07101562 1.05142578 -0.07101562 1.05142578 0 0 Z " fill="#341572" transform="translate(348,245)"/>
<path d="M0 0 C0.66 0 1.32 0 2 0 C2.33 1.32 2.66 2.64 3 4 C2.01 4.66 1.02 5.32 0 6 C-1.19232613 8.05003955 -1.19232613 8.05003955 -2 10 C-3.39195915 5.82412255 -1.82323219 3.86525224 0 0 Z " fill="#6F3BC0" transform="translate(311,114)"/>
<path d="M0 0 C1.32 0 2.64 0 4 0 C4 0.99 4 1.98 4 3 C2.35 3.33 0.7 3.66 -1 4 C-1.33 5.32 -1.66 6.64 -2 8 C-1.125 1.125 -1.125 1.125 0 0 Z " fill="#4A3A76" transform="translate(179,114)"/>
<path d="M0 0 C0.33 0.66 0.66 1.32 1 2 C-1.12055614 5.1808342 -2.63050557 6.31525278 -6 8 C-6.66 7.67 -7.32 7.34 -8 7 C-5.36 4.69 -2.72 2.38 0 0 Z " fill="#4F4859" transform="translate(182,346)"/>
<path d="M0 0 C1.32 0.33 2.64 0.66 4 1 C2.73760288 1.86658615 1.46472499 2.71792059 0.1875 3.5625 C-0.87404297 4.27599609 -0.87404297 4.27599609 -1.95703125 5.00390625 C-4 6 -4 6 -7 5 C-6.34 5 -5.68 5 -5 5 C-4.67 4.01 -4.34 3.02 -4 2 C-2.68 2 -1.36 2 0 2 C0 1.34 0 0.68 0 0 Z " fill="#6C3DB4" transform="translate(309,279)"/>
<path d="M0 0 C1.37562854 1.28965176 2.70766393 2.62689293 4 4 C4 4.66 4 5.32 4 6 C4.99 6.33 5.98 6.66 7 7 C4.50907189 8.24546405 3.58919267 7.7767578 1 7 C0.67 4.69 0.34 2.38 0 0 Z " fill="#8054C4" transform="translate(276,244)"/>
<path d="M0 0 C1.65 0 3.3 0 5 0 C5.66 1.32 6.32 2.64 7 4 C5.68 4.33 4.36 4.66 3 5 C2.01 3.35 1.02 1.7 0 0 Z " fill="#0F061C" transform="translate(187,153)"/>
<path d="M0 0 C0.66 0 1.32 0 2 0 C1.67 1.32 1.34 2.64 1 4 C-1.31 4.66 -3.62 5.32 -6 6 C-5.67 5.01 -5.34 4.02 -5 3 C-3.68 3 -2.36 3 -1 3 C-0.67 2.01 -0.34 1.02 0 0 Z " fill="#21114B" transform="translate(264,361)"/>
<path d="M0 0 C0.33 0 0.66 0 1 0 C1.33 4.62 1.66 9.24 2 14 C1.01 13.67 0.02 13.34 -1 13 C-1.33 12.01 -1.66 11.02 -2 10 C-1.67 9.67 -1.34 9.34 -1 9 C-0.76807135 7.48530552 -0.58784762 5.96245438 -0.4375 4.4375 C-0.35371094 3.61121094 -0.26992187 2.78492188 -0.18359375 1.93359375 C-0.12300781 1.29550781 -0.06242188 0.65742188 0 0 Z " fill="#21164A" transform="translate(210,339)"/>
<path d="M0 0 C0.66 1.32 1.32 2.64 2 4 C0.35 5.65 -1.3 7.3 -3 9 C-3 8.34 -3 7.68 -3 7 C-3.66 6.67 -4.32 6.34 -5 6 C-4.01 6 -3.02 6 -2 6 C-2 5.34 -2 4.68 -2 4 C-1.34 4 -0.68 4 0 4 C0 2.68 0 1.36 0 0 Z " fill="#9572C4" transform="translate(373,268)"/>
<path d="M0 0 C0 1.32 0 2.64 0 4 C-2.31 4.33 -4.62 4.66 -7 5 C-7.33 4.01 -7.66 3.02 -8 2 C-7.34 1.67 -6.68 1.34 -6 1 C-6 1.66 -6 2.32 -6 3 C-5.38125 2.505 -4.7625 2.01 -4.125 1.5 C-2 0 -2 0 0 0 Z " fill="#D4C2E5" transform="translate(285,218)"/>
<path d="M0 0 C0.66 0.66 1.32 1.32 2 2 C1.75 5.5625 1.75 5.5625 1 9 C0.01 9.495 0.01 9.495 -1 10 C-2.15837626 5.94568308 -1.83691257 3.78187881 0 0 Z " fill="#504C63" transform="translate(345,286)"/>
<path d="M0 0 C-0.66 0 -1.32 0 -2 0 C-2 0.66 -2 1.32 -2 2 C-4.64 2.33 -7.28 2.66 -10 3 C-9 1 -9 1 -6.6875 -0.1875 C-3.88010429 -1.03624754 -2.698065 -0.99928333 0 0 Z " fill="#693DAD" transform="translate(238,268)"/>
<path d="M0 0 C2.91517292 1.07401108 4.77810176 1.77810176 7 4 C5.02 4.99 5.02 4.99 3 6 C1.5 4.6875 1.5 4.6875 0 3 C0 2.01 0 1.02 0 0 Z " fill="#4A4861" transform="translate(314,153)"/>
<path d="M0 0 C0.66 0.33 1.32 0.66 2 1 C2.625 3.0625 2.625 3.0625 3 5 C2.01 5.33 1.02 5.66 0 6 C-0.99 5.01 -1.98 4.02 -3 3 C-2.01 2.01 -1.02 1.02 0 0 Z " fill="#0E051F" transform="translate(185,154)"/>
<path d="M0 0 C3.82097239 0.53069061 6.06171403 1.49701566 9 4 C7.02 4.99 7.02 4.99 5 6 C4.67 4.68 4.34 3.36 4 2 C2.68 1.67 1.36 1.34 0 1 C0 0.67 0 0.34 0 0 Z " fill="#2A2547" transform="translate(301,150)"/>
<path d="M0 0 C4.875 4.75 4.875 4.75 6 7 C4.35 6.67 2.7 6.34 1 6 C0.67 4.02 0.34 2.04 0 0 Z " fill="#4B2C8D" transform="translate(224,355)"/>
<path d="M0 0 C2.97 0 5.94 0 9 0 C9 0.33 9 0.66 9 1 C8.43410156 1.12117188 7.86820312 1.24234375 7.28515625 1.3671875 C6.18494141 1.61855469 6.18494141 1.61855469 5.0625 1.875 C4.33160156 2.03742188 3.60070312 2.19984375 2.84765625 2.3671875 C0.79299706 2.82961523 0.79299706 2.82961523 0 5 C0 3.35 0 1.7 0 0 Z " fill="#7641C5" transform="translate(280,339)"/>
<path d="M0 0 C0.33 0 0.66 0 1 0 C1 1.65 1 3.3 1 5 C-1.9719385 3.87548273 -4.33440687 2.77706209 -7 1 C-5.5459375 1.0309375 -5.5459375 1.0309375 -4.0625 1.0625 C-1.12534105 1.35618499 -1.12534105 1.35618499 0 0 Z " fill="#0E0626" transform="translate(257,250)"/>
<path d="M0 0 C0 0.66 0 1.32 0 2 C-0.66 2 -1.32 2 -2 2 C-2 2.66 -2 3.32 -2 4 C-4.31 4.66 -6.62 5.32 -9 6 C-3.15384615 0 -3.15384615 0 0 0 Z " fill="#6D3EB5" transform="translate(273,193)"/>
<path d="M0 0 C0.99 0.33 1.98 0.66 3 1 C2.67 1.66 2.34 2.32 2 3 C3.65 3 5.3 3 7 3 C6.67 3.66 6.34 4.32 6 5 C3.625 4.6875 3.625 4.6875 1 4 C0.34 3.01 -0.32 2.02 -1 1 C-0.67 0.67 -0.34 0.34 0 0 Z " fill="#655991" transform="translate(130,273)"/>
<path d="M0 0 C1.2077558 3.62326739 0.54311128 4.64146369 -1 8 C-1.66 7.67 -2.32 7.34 -3 7 C-1.125 1.125 -1.125 1.125 0 0 Z " fill="#D5B9F1" transform="translate(277,221)"/>
<path d="M0 0 C2.97 0 5.94 0 9 0 C7.25 1.5625 7.25 1.5625 5 3 C2.8125 2.8125 2.8125 2.8125 1 2 C0.67 1.34 0.34 0.68 0 0 Z " fill="#E4DFEE" transform="translate(207,211)"/>
<path d="M0 0 C0.66 0.33 1.32 0.66 2 1 C1.01 3.97 0.02 6.94 -1 10 C-1.33 10 -1.66 10 -2 10 C-2 7.69 -2 5.38 -2 3 C-1.34 3 -0.68 3 0 3 C0 2.01 0 1.02 0 0 Z " fill="#401543" transform="translate(181,177)"/>
<path d="M0 0 C1.32 0.33 2.64 0.66 4 1 C3.34 2.32 2.68 3.64 2 5 C0.68 4.67 -0.64 4.34 -2 4 C-1.34 2.68 -0.68 1.36 0 0 Z " fill="#100820" transform="translate(163,174)"/>
<path d="M0 0 C2.35953094 2.35953094 2.49141413 3.77895617 3 7 C2.01 7 1.02 7 0 7 C-0.38133299 5.0085944 -0.71325582 3.00720923 -1 1 C-0.67 0.67 -0.34 0.34 0 0 Z " fill="#8860C5" transform="translate(213,136)"/>
<path d="M0 0 C0.99 0.33 1.98 0.66 3 1 C3.33 3.31 3.66 5.62 4 8 C1 6 1 6 0.3125 2.875 C0.209375 1.92625 0.10625 0.9775 0 0 Z " fill="#8F62C5" transform="translate(205,120)"/>
</svg>
